<svg width="46" height="22" viewBox="0 0 46 22" fill="none" xmlns="http://www.w3.org/2000/svg">
<path d="M16.0837 1.5388C16.5515 1.1509 17.0959 1.10617 17.3287 1.13707C17.3287 1.13707 17.3591 1.84782 17.3287 1.87872C17.2531 1.95558 16.5392 1.69331 16.3569 2.77488C16.2962 3.60923 16.3569 5.98867 16.3569 5.98867H15.537C15.5775 4.73199 15.2638 2.21868 16.0837 1.5388Z" fill="white"/>
<path d="M7.14467 18.3312C7.14467 19.493 6.22159 20.4187 5.10266 20.4187C3.98372 20.4187 3.06064 19.493 3.06064 18.3312C3.06064 17.1693 3.98372 16.2437 5.10266 16.2437C6.22159 16.2437 7.14467 17.1693 7.14467 18.3312Z" stroke="white" stroke-width="1.07832"/>
<path d="M31.3942 18.3312C31.3942 19.493 30.4711 20.4187 29.3522 20.4187C28.2332 20.4187 27.3102 19.493 27.3102 18.3312C27.3102 17.1693 28.2332 16.2437 29.3522 16.2437C30.4711 16.2437 31.3942 17.1693 31.3942 18.3312Z" stroke="white" stroke-width="1.07832"/>
<path d="M37.6305 18.3312C37.6305 19.493 36.7074 20.4187 35.5885 20.4187C34.4696 20.4187 33.5465 19.493 33.5465 18.3312C33.5465 17.1693 34.4696 16.2437 35.5885 16.2437C36.7074 16.2437 37.6305 17.1693 37.6305 18.3312Z" stroke="white" stroke-width="1.07832"/>
<path d="M1.57918 15.9873H1.97918V15.5873V10.7446L10.1092 10.3878C10.2979 10.3795 10.4607 10.2525 10.5145 10.0714L11.3874 7.13321C11.4533 6.91132 11.3378 6.68871 11.1429 6.60194L11.277 6.30952H20.6602V6.61633C20.6602 6.86102 20.8586 7.05937 21.1033 7.05937H21.7425V14.65V15.05H22.1425H28.2795C28.0104 15.1277 27.7708 15.2345 27.5582 15.3648C27.0925 15.6502 26.7789 16.0343 26.5697 16.4227C26.2895 16.9427 26.1909 17.4801 26.1569 17.8352H15.5076C15.263 17.8352 15.0646 18.0336 15.0646 18.2783V18.6788H9.73936V18.6766C9.73936 18.432 9.54101 18.2336 9.29633 18.2336H8.48459C8.45502 17.8434 8.35999 17.2298 8.06619 16.6357C7.85264 16.2038 7.52929 15.7725 7.04231 15.4503C6.55321 15.1268 5.92348 14.9296 5.12537 14.9296C4.32704 14.9296 3.69632 15.1269 3.20564 15.4501C2.71711 15.7719 2.39122 16.2027 2.17492 16.6343C1.87671 17.2293 1.77773 17.8438 1.7457 18.2336H1.38047V15.9873H1.57918ZM31.1908 15.3646C30.9774 15.2344 30.7372 15.1276 30.4677 15.05H34.4624C34.1967 15.1279 33.9607 15.2351 33.7521 15.3664C33.2954 15.6536 32.9942 16.0401 32.7977 16.43C32.6546 16.7139 32.5653 17.0029 32.5099 17.2647C32.4443 17.0007 32.3428 16.7083 32.186 16.4213C31.974 16.0332 31.6579 15.6496 31.1908 15.3646ZM38.386 16.4155C38.0513 15.838 37.5023 15.2987 36.6366 15.05H39.082V17.8352H38.8592C38.8108 17.4823 38.6898 16.9398 38.386 16.4155Z" stroke="white" stroke-width="0.8"/>
<path d="M12.0886 7.24956L15.296 7.24956L15.296 9.79518H11.478L12.0886 7.24956Z" stroke="white" stroke-width="0.430364"/>
<path d="M45.249 1.03548H22.6729V14.1111H40.0124V18.2353H45.249" stroke="white" stroke-width="0.8"/>
</svg>
