<svg width="21" height="22" viewBox="0 0 21 22" fill="none" xmlns="http://www.w3.org/2000/svg">
<path fill-rule="evenodd" clip-rule="evenodd" d="M10.0228 2.95374e-05L10.0179 0.0017081C10.0151 0.00168013 10.0124 0.00168013 10.0097 0.0017081C9.96125 0.0052389 9.91384 0.0174559 9.8696 0.0377956L0.34769 4.18618C0.249918 4.2019 0.160973 4.25296 0.0971313 4.33002C0.0332894 4.40707 -0.00117983 4.50497 3.08406e-05 4.6058V17.1961C-0.000451261 17.2559 0.0116268 17.3152 0.0354556 17.3699L0.0371036 17.3749C0.0404505 17.3825 0.0440221 17.3901 0.0478135 17.3975C0.0920775 17.4881 0.166976 17.5594 0.258716 17.5981L9.78804 21.7482C9.86935 21.8079 9.96923 21.8353 10.069 21.8254C10.1411 21.8215 10.211 21.7984 10.2716 21.7583L19.8232 17.5981C19.8902 17.5704 19.9489 17.5251 19.9933 17.4669C20.0377 17.4087 20.0663 17.3396 20.0761 17.2666C20.0774 17.2591 20.0785 17.2515 20.0794 17.244C20.0801 17.2373 20.0807 17.2306 20.0811 17.2238C20.0812 17.2168 20.0812 17.2098 20.0811 17.2028C20.0811 17.2006 20.0811 17.1984 20.0811 17.1961V4.6058C20.0821 4.50624 20.0484 4.40954 19.9859 4.33297C19.9235 4.25641 19.8363 4.20497 19.74 4.18785L16.4669 2.76239L14.1078 1.73502L10.2107 0.0377956C10.2023 0.0335852 10.1938 0.0296663 10.1851 0.026046L10.1818 0.0243676C10.1696 0.0207086 10.1573 0.0176279 10.1448 0.0151358C10.1407 0.0139518 10.1365 0.0128327 10.1324 0.0117789C10.1232 0.00920928 10.1138 0.00697001 10.1044 0.00506503C10.1003 0.00444207 10.0962 0.00388243 10.092 0.00338647C10.083 0.00252184 10.0739 0.00196216 10.0649 0.0017081C10.0509 0.000420314 10.0369 -0.00013999 10.0228 2.95374e-05ZM13.1073 2.21311L15.5574 3.27979L6.83953 7.07821C6.75898 7.11347 6.69158 7.174 6.64713 7.25098C6.60268 7.32796 6.5835 7.41737 6.59238 7.50622C6.5909 7.5224 6.59035 7.53866 6.59073 7.5549V12.0449L5.69769 10.6794C5.64203 10.5944 5.55785 10.533 5.46093 10.5068C5.36401 10.4805 5.26101 10.4912 5.17126 10.5367L4.11922 11.0722V6.12903L13.1073 2.21311ZM14.086 14.8983L14.0811 14.9C14.0299 14.9025 13.9796 14.9147 13.9328 14.936L11.5313 15.9817C11.4308 16.0254 11.3514 16.1079 11.3106 16.2111C11.2698 16.3144 11.271 16.4299 11.3138 16.5323C11.3566 16.6347 11.4376 16.7155 11.539 16.7571C11.6403 16.7986 11.7537 16.7975 11.8542 16.7538L14.2582 15.7081C14.3494 15.6719 14.425 15.6036 14.4713 15.5157C14.5176 15.4278 14.5316 15.326 14.5109 15.2285C14.4902 15.131 14.436 15.0442 14.3582 14.9837C14.2803 14.9231 14.1838 14.8929 14.086 14.8983ZM16.4834 15.5277C16.433 15.5305 16.3836 15.5428 16.3376 15.5638L13.9336 16.6095L11.5313 17.6569C11.4308 17.7005 11.3514 17.783 11.3106 17.8863C11.2698 17.9895 11.271 18.105 11.3138 18.2074C11.3566 18.3098 11.4376 18.3907 11.539 18.4322C11.6403 18.4738 11.7537 18.4726 11.8542 18.429L14.2582 17.3816L16.6605 16.3342C16.7499 16.2963 16.8233 16.2275 16.8678 16.1399C16.9123 16.0523 16.9251 15.9515 16.904 15.8553C16.8829 15.759 16.8291 15.6734 16.7522 15.6135C16.6753 15.5536 16.5801 15.5233 16.4834 15.5277Z" fill="#4D9FFF"/>
</svg>
