<svg width="47" height="46" viewBox="0 0 47 46" fill="none" xmlns="http://www.w3.org/2000/svg">
<path d="M11.1815 38.9786L10.6512 39.509H10.6512L11.1815 38.9786ZM16.9559 40.0967L16.9546 40.8467L17.7059 40.848V40.0967H16.9559ZM29.9004 40.0967H29.1504V40.848L29.9017 40.8467L29.9004 40.0967ZM36.2704 19.3348L35.5891 19.6482L36.2704 19.3348ZM32.7938 15.6647L33.2819 15.0952L33.2819 15.0952L32.7938 15.6647ZM30.8844 14.0281L30.3963 14.5975L30.3963 14.5975L30.8844 14.0281ZM15.973 14.0281L16.4611 14.5975V14.5975L15.973 14.0281ZM14.0636 15.6647L13.5756 15.0952L13.5756 15.0952L14.0636 15.6647ZM26.5028 40.0971V40.8471H27.2528V40.0971H26.5028ZM20.3535 40.0971H19.6035V40.8471H20.3535V40.0971ZM10.813 24.363C10.813 21.7019 10.829 20.6036 11.2684 19.6482L9.90566 19.0215C9.29695 20.3449 9.31299 21.8391 9.31299 24.363H10.813ZM10.813 32.4596V24.363H9.31299V32.4596H10.813ZM11.7118 38.4483C11.3151 38.0516 11.0747 37.5066 10.9461 36.5499C10.8146 35.5716 10.813 34.281 10.813 32.4596H9.31299C9.31299 34.2386 9.3114 35.6482 9.45949 36.7497C9.61048 37.8728 9.92933 38.7871 10.6512 39.509L11.7118 38.4483ZM16.9572 39.3467C15.3898 39.3441 14.2672 39.3226 13.4114 39.1847C12.5774 39.0504 12.0809 38.8174 11.7118 38.4483L10.6512 39.509C11.3207 40.1785 12.1565 40.5019 13.1728 40.6656C14.1671 40.8258 15.4125 40.8441 16.9546 40.8467L16.9572 39.3467ZM17.7059 40.0967V30.5502H16.2059V40.0967H17.7059ZM17.7059 30.5502C17.7059 28.9716 18.9855 27.692 20.5641 27.692V26.192C18.1571 26.192 16.2059 28.1432 16.2059 30.5502H17.7059ZM20.5641 27.692H26.2923V26.192H20.5641V27.692ZM26.2923 27.692C27.8708 27.692 29.1504 28.9716 29.1504 30.5502H30.6504C30.6504 28.1432 28.6992 26.192 26.2923 26.192V27.692ZM29.1504 30.5502V40.0967H30.6504V30.5502H29.1504ZM35.1457 38.4483C34.7766 38.8174 34.2799 39.0504 33.4458 39.1848C32.5897 39.3226 31.4669 39.3441 29.8992 39.3467L29.9017 40.8467C31.4442 40.8441 32.6898 40.8258 33.6843 40.6657C34.7007 40.502 35.5367 40.1786 36.2063 39.509L35.1457 38.4483ZM36.0445 32.4596C36.0445 34.281 36.0429 35.5716 35.9114 36.5499C35.7827 37.5066 35.5423 38.0516 35.1457 38.4483L36.2063 39.509C36.9282 38.7871 37.247 37.8728 37.398 36.7497C37.5461 35.6482 37.5445 34.2386 37.5445 32.4596H36.0445ZM36.0445 24.363V32.4596H37.5445V24.363H36.0445ZM35.5891 19.6482C36.0285 20.6036 36.0445 21.7019 36.0445 24.363H37.5445C37.5445 21.8391 37.5605 20.3449 36.9518 19.0215L35.5891 19.6482ZM32.3057 16.2341C34.3262 17.966 35.1497 18.6929 35.5891 19.6482L36.9518 19.0215C36.3431 17.698 35.1982 16.7377 33.2819 15.0952L32.3057 16.2341ZM30.3963 14.5975L32.3057 16.2341L33.2819 15.0952L31.3725 13.4586L30.3963 14.5975ZM23.4287 10.2037C24.2855 10.2037 25.1153 10.5043 26.2037 11.2231C27.3096 11.9536 28.6027 13.0601 30.3963 14.5975L31.3725 13.4586C29.6084 11.9465 28.2331 10.7658 27.0304 9.97149C25.8101 9.16555 24.6909 8.70374 23.4287 8.70374V10.2037ZM16.4611 14.5975C18.2548 13.0601 19.5478 11.9536 20.6538 11.2231C21.7422 10.5043 22.572 10.2037 23.4287 10.2037V8.70374C22.1665 8.70374 21.0474 9.16555 19.8271 9.97149C18.6244 10.7658 17.2491 11.9465 15.4849 13.4586L16.4611 14.5975ZM14.5517 16.2341L16.4611 14.5975L15.4849 13.4586L13.5756 15.0952L14.5517 16.2341ZM11.2684 19.6482C11.7078 18.6929 12.5313 17.966 14.5517 16.2341L13.5756 15.0952C11.6593 16.7377 10.5144 17.698 9.90566 19.0215L11.2684 19.6482ZM27.2528 40.0971C27.2528 40.0971 27.2528 40.0971 27.2528 40.0971V40.0971C27.2528 40.0971 27.2528 40.0971 27.2528 40.0971V40.0971V40.0971V40.0971V40.0971C27.2528 40.0971 27.2528 40.0971 27.2528 40.0971V40.0971C27.2528 40.0971 27.2528 40.0971 27.2528 40.0971H25.7528C25.7528 40.0971 25.7528 40.0971 25.7528 40.0971V40.0971C25.7528 40.0971 25.7528 40.0971 25.7528 40.0971V40.0971V40.0971V40.0971V40.0971C25.7528 40.0971 25.7528 40.0971 25.7528 40.0971V40.0971C25.7528 40.0971 25.7528 40.0971 25.7528 40.0971H27.2528ZM27.2528 40.0971V30.5502H25.7528V40.0971H27.2528ZM27.2528 30.5502C27.2528 30.0196 26.8228 29.5896 26.2923 29.5896V31.0896C25.9944 31.0896 25.7528 30.8481 25.7528 30.5502H27.2528ZM26.2923 29.5896H20.5641V31.0896H26.2923V29.5896ZM20.5641 29.5896C20.0336 29.5896 19.6035 30.0196 19.6035 30.5502H21.1035C21.1035 30.8481 20.862 31.0896 20.5641 31.0896V29.5896ZM19.6035 30.5502V40.0971H21.1035V30.5502H19.6035ZM19.6035 40.0971C19.6035 40.0971 19.6035 40.0971 19.6035 40.0971V40.0971C19.6035 40.0971 19.6035 40.0971 19.6035 40.0971V40.0971V40.0971V40.0971V40.0971C19.6035 40.0971 19.6035 40.0971 19.6035 40.0971V40.0971C19.6035 40.0971 19.6035 40.0971 19.6035 40.0971H21.1035C21.1035 40.0971 21.1035 40.0971 21.1035 40.0971V40.0971C21.1035 40.0971 21.1035 40.0971 21.1035 40.0971V40.0971V40.0971V40.0971V40.0971C21.1035 40.0971 21.1035 40.0971 21.1035 40.0971V40.0971C21.1035 40.0971 21.1035 40.0971 21.1035 40.0971H19.6035ZM26.5028 39.3471H20.3535V40.8471H26.5028V39.3471Z" fill="white"/>
</svg>
