<svg width="50" height="16" viewBox="0 0 50 16" fill="none" xmlns="http://www.w3.org/2000/svg">
<path d="M11.0906 0.932878C11.4341 0.647825 11.8339 0.614954 12.0048 0.637662C12.0048 0.637662 12.0272 1.15996 12.0048 1.18267C11.9494 1.23915 11.4251 1.04642 11.2913 1.84121C11.2467 2.45434 11.2913 4.20288 11.2913 4.20288H10.6892C10.719 3.27941 10.4886 1.43249 11.0906 0.932878Z" fill="#4D9FFF"/>
<path d="M4.49104 13.2728C4.49104 14.1079 3.82828 14.7714 3.02721 14.7714C2.22614 14.7714 1.56339 14.1079 1.56339 13.2728C1.56339 12.4376 2.22614 11.7741 3.02721 11.7741C3.82828 11.7741 4.49104 12.4376 4.49104 13.2728Z" stroke="#4D9FFF" stroke-width="0.863105"/>
<path d="M22.2977 13.2728C22.2977 14.1079 21.6349 14.7714 20.8339 14.7714C20.0328 14.7714 19.37 14.1079 19.37 13.2728C19.37 12.4376 20.0328 11.7741 20.8339 11.7741C21.6349 11.7741 22.2977 12.4376 22.2977 13.2728Z" stroke="#4D9FFF" stroke-width="0.863105"/>
<path d="M26.8768 13.2728C26.8768 14.1079 26.214 14.7714 25.413 14.7714C24.6119 14.7714 23.9491 14.1079 23.9491 13.2728C23.9491 12.4376 24.6119 11.7741 25.413 11.7741C26.214 11.7741 26.8768 12.4376 26.8768 13.2728Z" stroke="#4D9FFF" stroke-width="0.863105"/>
<path fill-rule="evenodd" clip-rule="evenodd" d="M0.301848 11.2565H0.137788C0.0616899 11.2565 0 11.3182 0 11.3943V13.3573C0 13.4333 0.06169 13.495 0.137788 13.495H0.701789C0.780145 13.495 0.843717 13.4307 0.846853 13.3524C0.867683 12.8323 1.08282 11.067 3.04364 11.067C5.18005 11.067 5.22954 13.1626 5.2258 13.4601C5.22555 13.4798 5.2414 13.495 5.26108 13.495H6.10356C6.12258 13.495 6.13801 13.5105 6.13801 13.5295V13.6844C6.13801 13.7605 6.1997 13.8222 6.2758 13.8222H10.498C10.5741 13.8222 10.6358 13.7605 10.6358 13.6844V13.2367C10.6358 13.2177 10.6513 13.2023 10.6703 13.2023H18.733C18.7527 13.2023 18.7685 13.1872 18.7684 13.1675C18.7668 12.8902 18.832 11.0498 20.8489 11.0498C22.8665 11.0498 22.9456 12.8914 22.9461 13.1678C22.9461 13.1873 22.9619 13.2023 22.9815 13.2023H23.348C23.3681 13.2023 23.3842 13.1865 23.3835 13.1664C23.3731 12.8854 23.3819 11.0498 25.3806 11.0498C27.3858 11.0498 27.5332 12.8974 27.5441 13.1691C27.5448 13.1881 27.5604 13.2023 27.5794 13.2023H28.2376C28.2566 13.2023 28.272 13.1869 28.272 13.1679V10.6021C28.272 10.5831 28.2566 10.5677 28.2376 10.5677H15.5739C15.5549 10.5677 15.5395 10.5522 15.5395 10.5332V4.73017C15.5395 4.71114 15.5241 4.69572 15.505 4.69572H14.7792C14.7602 4.69572 14.7447 4.6803 14.7447 4.66127V4.17913C14.7447 4.16011 14.7293 4.14468 14.7103 4.14468H7.39448C7.38101 4.14468 7.36877 4.15254 7.36316 4.16478L7.03964 4.87078C7.02919 4.89359 7.04586 4.91958 7.07096 4.91958H7.32621C7.34925 4.91958 7.36579 4.94174 7.35924 4.96383L6.7199 7.1174C6.71572 7.13148 6.70307 7.14136 6.68839 7.14201L0.57138 7.41066C0.497703 7.4139 0.439637 7.47457 0.439637 7.54832V11.1187C0.439637 11.1948 0.377947 11.2565 0.301848 11.2565ZM8.16767 4.97123C8.08801 4.97123 8.01875 5.02586 8.00018 5.10332L7.55856 6.94576C7.53261 7.05406 7.61469 7.15815 7.72605 7.15815H10.4974C10.5925 7.15815 10.6697 7.08103 10.6697 6.98591V5.14347C10.6697 5.04834 10.5925 4.97123 10.4974 4.97123H8.16767Z" fill="#4D9FFF"/>
<path d="M36.3708 12.8853C36.362 12.9321 36.355 12.9758 36.3492 13.0156H29.1427V10.2426V9.98426H28.8844H16.1734V0.89022H49.4321V13.0156H46.832C46.8243 12.9741 46.8148 12.9283 46.8033 12.8789C46.7523 12.6603 46.6591 12.366 46.4894 12.0692C46.1429 11.4635 45.4826 10.8627 44.2822 10.8627C43.691 10.8627 43.2304 11.0088 42.8759 11.2414C42.5229 11.4731 42.2904 11.7804 42.1379 12.0805C41.9861 12.3795 41.9114 12.6754 41.8743 12.8944C41.867 12.9377 41.8611 12.9783 41.8563 13.0156H41.2531C41.246 12.9761 41.2374 12.9326 41.2269 12.8859C41.1785 12.6701 41.0894 12.3793 40.9255 12.0848C40.5913 11.4842 39.9499 10.8816 38.7749 10.8627C38.1944 10.8533 37.7389 10.9955 37.3862 11.2269C37.0355 11.457 36.8017 11.7652 36.6465 12.0661C36.4917 12.3662 36.4121 12.6643 36.3708 12.8853Z" fill="white" stroke="white" stroke-width="0.516707"/>
<path d="M40.2518 13.2728C40.2518 14.1079 39.589 14.7714 38.788 14.7714C37.9869 14.7714 37.3241 14.1079 37.3241 13.2728C37.3241 12.4376 37.9869 11.7741 38.788 11.7741C39.589 11.7741 40.2518 12.4376 40.2518 13.2728Z" stroke="white" stroke-width="0.863105"/>
<path d="M45.7615 13.2728C45.7615 14.1079 45.0988 14.7714 44.2977 14.7714C43.4966 14.7714 42.8339 14.1079 42.8339 13.2728C42.8339 12.4376 43.4966 11.7741 44.2977 11.7741C45.0988 11.7741 45.7615 12.4376 45.7615 13.2728Z" stroke="white" stroke-width="0.863105"/>
</svg>
