<svg width="1452" height="426" viewBox="0 0 1452 426" fill="none" xmlns="http://www.w3.org/2000/svg">
<path d="M327.94 10.7411C338.097 2.46425 349.918 1.50981 354.974 2.16918C354.974 2.16918 355.633 17.3348 354.974 17.9942C353.333 19.634 337.83 14.038 333.874 37.1158C332.556 54.9188 333.874 105.69 333.874 105.69H316.071C316.95 78.8757 310.137 25.2479 327.94 10.7411Z" fill="white"/>
<path d="M133.032 369.046C133.032 393.081 113.548 412.565 89.5138 412.565C65.4795 412.565 45.9957 393.081 45.9957 369.046C45.9957 345.012 65.4795 325.528 89.5138 325.528C113.548 325.528 133.032 345.012 133.032 369.046Z" stroke="white" stroke-width="25.0559"/>
<path d="M659.564 369.046C659.564 393.081 640.08 412.565 616.046 412.565C592.012 412.565 572.528 393.081 572.528 369.046C572.528 345.012 592.012 325.528 616.046 325.528C640.08 325.528 659.564 345.012 659.564 369.046Z" stroke="white" stroke-width="25.0559"/>
<path d="M794.974 369.046C794.974 393.081 775.49 412.565 751.456 412.565C727.422 412.565 707.938 393.081 707.938 369.046C707.938 345.012 727.422 325.528 751.456 325.528C775.49 325.528 794.974 345.012 794.974 369.046Z" stroke="white" stroke-width="25.0559"/>
<path d="M13 317H19.5V310.5V205.226L198.071 197.525C201.255 197.387 204.005 195.253 204.927 192.202L223.832 129.67C225.187 125.188 222.158 120.671 217.675 120.068L222.14 110.5H429.5V119C429.5 123.142 432.858 126.5 437 126.5H453V290.5V297H459.5H829.5V360.5H820.537C819.684 353.253 817.239 340.87 810.193 328.993C800.554 312.747 782.584 298 750.5 298C734.721 298 722.403 301.568 712.892 307.418C703.386 313.265 697.073 321.151 692.922 329.183C686.853 340.922 685.309 353.145 684.985 360.5H684.768C684.17 353.192 682.159 340.879 675.545 329.063C671.065 321.059 664.432 313.215 654.687 307.399C644.933 301.577 632.416 298 616.5 298C600.59 298 588.097 301.574 578.378 307.4C568.668 313.221 562.089 321.072 557.667 329.082C551.15 340.885 549.229 353.182 548.684 360.5H315.5C311.358 360.5 308 363.858 308 368V378.5H188V376.5C188 372.358 184.642 369 180.5 369H160.887C160.429 361.01 158.604 347.017 151.793 333.566C147.262 324.618 140.455 315.773 130.281 309.186C120.078 302.58 106.88 298.5 90 298.5C73.1146 298.5 59.8932 302.583 49.6544 309.183C39.4442 315.766 32.5826 324.604 27.9933 333.547C21.0835 347.012 19.1661 361.021 18.6562 369H6.5V317H13Z" stroke="white" stroke-width="13"/>
<path d="M241.426 133L310.5 133V186.5H228.367L241.426 133Z" stroke="white" stroke-width="10"/>
<path d="M1179.56 369.046C1179.56 393.081 1160.08 412.565 1136.05 412.565C1112.01 412.565 1092.53 393.081 1092.53 369.046C1092.53 345.012 1112.01 325.528 1136.05 325.528C1160.08 325.528 1179.56 345.012 1179.56 369.046Z" stroke="white" stroke-width="25.0559"/>
<path d="M1338.56 369.046C1338.56 393.081 1319.08 412.565 1295.05 412.565C1271.01 412.565 1251.53 393.081 1251.53 369.046C1251.53 345.012 1271.01 325.528 1295.05 325.528C1319.08 325.528 1338.56 345.012 1338.56 369.046Z" stroke="white" stroke-width="25.0559"/>
<path d="M1064.83 355.716C1064.58 357.076 1064.37 358.344 1064.2 359.5H855V279V271.5H847.5H478.5V7.5H1444V359.5H1368.52C1368.3 358.296 1368.02 356.965 1367.69 355.53C1366.21 349.185 1363.5 340.641 1358.57 332.026C1348.51 314.442 1329.35 297 1294.5 297C1277.34 297 1263.96 301.243 1253.67 307.995C1243.43 314.72 1236.68 323.642 1232.25 332.353C1227.84 341.033 1225.67 349.623 1224.6 355.982C1224.38 357.24 1224.21 358.418 1224.07 359.5H1206.56C1206.36 358.352 1206.11 357.09 1205.8 355.733C1204.4 349.47 1201.81 341.027 1197.05 332.478C1187.35 315.042 1168.73 297.551 1134.62 297.001C1117.77 296.729 1104.55 300.856 1094.31 307.573C1084.13 314.253 1077.34 323.201 1072.83 331.937C1068.34 340.648 1066.03 349.302 1064.83 355.716Z" stroke="white" stroke-width="15"/>
</svg>
