<svg width="22" height="23" viewBox="0 0 22 23" fill="none" xmlns="http://www.w3.org/2000/svg">
<path fill-rule="evenodd" clip-rule="evenodd" d="M11.156 3.07959e-05C11.1543 0.000603055 11.1525 0.00118648 11.1508 0.00178088C11.1479 0.00175171 11.1449 0.00175171 11.142 0.00178088C11.0906 0.0054621 11.0403 0.0181996 10.9933 0.0394059L0.880025 4.36453C0.776181 4.38092 0.681712 4.43416 0.613906 4.5145C0.546099 4.59484 0.509489 4.69691 0.510775 4.80203V17.9288C0.510263 17.9911 0.523091 18.0529 0.5484 18.1099C0.548972 18.1117 0.549556 18.1134 0.55015 18.1152C0.553705 18.1231 0.557498 18.131 0.561525 18.1388C0.608538 18.2332 0.688088 18.3075 0.785525 18.3479L10.9066 22.6748C10.993 22.737 11.0991 22.7656 11.205 22.7553C11.2817 22.7512 11.3559 22.7271 11.4203 22.6853L21.565 18.3479C21.6362 18.319 21.6985 18.2718 21.7457 18.2111C21.7928 18.1504 21.8232 18.0784 21.8337 18.0023C21.835 17.9944 21.8362 17.9866 21.8372 17.9787C21.8379 17.9717 21.8385 17.9647 21.8389 17.9577C21.8391 17.9504 21.8391 17.9431 21.8389 17.9358C21.8389 17.9334 21.8389 17.9311 21.8389 17.9288V4.80203C21.84 4.69823 21.8042 4.59741 21.7379 4.51758C21.6715 4.43776 21.5789 4.38413 21.4767 4.36628L11.3555 0.0394059C11.3466 0.0350161 11.3376 0.0309302 11.3284 0.0271557C11.3272 0.0265672 11.3261 0.0259839 11.3249 0.0254058C11.3119 0.0215909 11.2988 0.018379 11.2855 0.0157807C11.2812 0.0145462 11.2768 0.0133794 11.2724 0.0122807C11.2626 0.00960164 11.2526 0.00726697 11.2427 0.00528083C11.2383 0.00463132 11.2339 0.00404784 11.2295 0.00353075C11.2199 0.00262928 11.2103 0.00204576 11.2006 0.00178088C11.1858 0.000438222 11.1709 -0.000145954 11.156 3.07959e-05ZM11.1744 0.914406L13.319 1.83053L4.22953 5.71816C4.22064 5.72195 4.21189 5.72603 4.20328 5.73041L2.05778 4.81253L11.1753 0.914406H11.1744ZM14.432 2.30741L17.0343 3.41953L7.77502 7.37978C7.68948 7.41655 7.61789 7.47965 7.57068 7.55991C7.52347 7.64017 7.5031 7.7334 7.51252 7.82603C7.51096 7.8429 7.51038 7.85984 7.51077 7.87678V12.558L6.56228 11.1344C6.50316 11.0458 6.41375 10.9818 6.31081 10.9544C6.20787 10.927 6.09848 10.9381 6.00315 10.9857L4.88578 11.5439V6.39016L14.432 2.30741ZM18.1473 3.89466L20.2936 4.81253L11.1753 8.71066L9.03065 7.79453L18.1219 3.90691C18.1308 3.90311 18.1395 3.89903 18.1481 3.89466H18.1473ZM1.38577 5.47578L4.01078 6.59841V12.2518C4.01078 12.3264 4.02986 12.3998 4.06621 12.4649C4.10255 12.5301 4.15496 12.5848 4.21844 12.624C4.28192 12.6632 4.35437 12.6855 4.4289 12.6888C4.50344 12.6921 4.57757 12.6763 4.64428 12.6429L6.04778 11.9403L7.55977 14.2083C7.60778 14.3007 7.68722 14.373 7.78377 14.4122C7.79668 14.4172 7.80982 14.4215 7.82315 14.4253C7.82373 14.4259 7.82432 14.4264 7.8249 14.427C7.85289 14.4351 7.88161 14.4404 7.91065 14.4428C7.92519 14.4441 7.9398 14.4447 7.9544 14.4445C7.969 14.4447 7.9836 14.4441 7.99815 14.4428C8.01287 14.4406 8.02747 14.4377 8.0419 14.434C8.05072 14.432 8.05947 14.4296 8.06815 14.427C8.07313 14.426 8.07809 14.4248 8.08302 14.4235C8.18087 14.3928 8.2648 14.3286 8.32014 14.2422C8.37547 14.1558 8.39871 14.0528 8.38577 13.951V8.47178L10.7369 9.47628V21.651L1.38577 17.6523V5.47578ZM20.9639 5.47753V17.6523L11.6119 21.6528V9.47628L20.9639 5.47753ZM15.4715 15.533C15.4698 15.5336 15.468 15.5342 15.4663 15.5348C15.4119 15.5374 15.3585 15.5502 15.3088 15.5724L12.7582 16.6627C12.6514 16.7081 12.5671 16.7942 12.5238 16.9018C12.4804 17.0095 12.4817 17.1299 12.5272 17.2367C12.5726 17.3434 12.6587 17.4277 12.7663 17.471C12.874 17.5144 12.9944 17.5131 13.1011 17.4677L15.6544 16.3774C15.7513 16.3396 15.8315 16.2684 15.8807 16.1768C15.9299 16.0851 15.9448 15.9789 15.9228 15.8773C15.9008 15.7756 15.8433 15.6851 15.7606 15.622C15.6779 15.559 15.5754 15.5274 15.4715 15.533ZM18.0178 16.1893C17.9643 16.1922 17.9118 16.205 17.8629 16.2269L15.3096 17.3172L12.7582 18.4092C12.6514 18.4546 12.5671 18.5407 12.5238 18.6483C12.4804 18.756 12.4817 18.8764 12.5272 18.9832C12.5726 19.0899 12.6587 19.1742 12.7663 19.2175C12.874 19.2609 12.9944 19.2596 13.1011 19.2142L15.6544 18.1222L18.2059 17.0302C18.3008 16.9906 18.3788 16.9189 18.4261 16.8275C18.4734 16.7362 18.487 16.6312 18.4645 16.5308C18.4421 16.4305 18.385 16.3412 18.3033 16.2788C18.2216 16.2163 18.1205 16.1846 18.0178 16.1893Z" fill="#ECECEC"/>
</svg>
