<svg width="31" height="34" viewBox="0 0 31 34" fill="none" xmlns="http://www.w3.org/2000/svg">
<path fill-rule="evenodd" clip-rule="evenodd" d="M15.4012 0.130782L15.3936 0.133312C15.3894 0.13327 15.3852 0.13327 15.381 0.133312C15.3066 0.138634 15.2338 0.157049 15.1659 0.187708L0.544634 6.44077C0.394502 6.46447 0.257923 6.54144 0.159891 6.65759C0.0618593 6.77374 0.00893052 6.92131 0.0107895 7.07329V26.0513C0.0100493 26.1415 0.0285956 26.2308 0.0651857 26.3132L0.0677162 26.3208C0.0728555 26.3323 0.0783398 26.3437 0.0841616 26.3549C0.152131 26.4915 0.267141 26.5988 0.40801 26.6573L15.0407 32.9129C15.1655 33.0029 15.3189 33.0442 15.472 33.0293C15.5828 33.0234 15.6902 32.9885 15.7832 32.9281L30.45 26.6573C30.5529 26.6154 30.643 26.5472 30.7112 26.4595C30.7794 26.3718 30.8233 26.2677 30.8384 26.1576C30.8404 26.1463 30.8421 26.1349 30.8435 26.1234C30.8446 26.1133 30.8454 26.1032 30.846 26.0931C30.8463 26.0825 30.8463 26.072 30.846 26.0614C30.846 26.0581 30.846 26.0547 30.846 26.0513V7.07329C30.8476 6.92322 30.7959 6.77746 30.6999 6.66205C30.604 6.54664 30.4701 6.46911 30.3223 6.4433L25.2962 4.29463L21.6739 2.74603L15.6896 0.187708C15.6768 0.181362 15.6637 0.175455 15.6504 0.169998L15.6453 0.167468C15.6266 0.161952 15.6076 0.157309 15.5884 0.153552C15.5821 0.151767 15.5758 0.150081 15.5694 0.148492C15.5552 0.144619 15.5409 0.141244 15.5264 0.138372C15.5201 0.137433 15.5138 0.136589 15.5075 0.135842C15.4936 0.134539 15.4796 0.133695 15.4657 0.133312C15.4443 0.131371 15.4227 0.130526 15.4012 0.130782ZM20.1375 3.46668L23.8997 5.07454L10.5131 10.8001C10.3894 10.8532 10.2859 10.9445 10.2177 11.0605C10.1494 11.1765 10.12 11.3113 10.1336 11.4452C10.1313 11.4696 10.1305 11.4941 10.1311 11.5186V18.2866L8.75977 16.2283C8.6743 16.1002 8.54503 16.0077 8.39621 15.9681C8.24739 15.9285 8.08923 15.9446 7.95141 16.0133L6.33596 16.8204V9.36933L20.1375 3.46668ZM21.6403 22.5877L21.6328 22.5902C21.5541 22.594 21.4769 22.6124 21.405 22.6446L17.7175 24.2208C17.5631 24.2866 17.4412 24.411 17.3786 24.5666C17.316 24.7222 17.3177 24.8964 17.3835 25.0507C17.4493 25.205 17.5736 25.3269 17.7293 25.3895C17.8849 25.4522 18.059 25.4504 18.2134 25.3847L21.9047 23.8084C22.0448 23.7537 22.1608 23.6509 22.2319 23.5184C22.3031 23.3859 22.3246 23.2323 22.2928 23.0854C22.261 22.9384 22.1778 22.8076 22.0582 22.7164C21.9387 22.6251 21.7905 22.5795 21.6403 22.5877ZM25.3216 23.5364C25.2443 23.5407 25.1684 23.5592 25.0977 23.5908L21.4063 25.1671L17.7175 26.7458C17.5631 26.8116 17.4412 26.936 17.3786 27.0916C17.316 27.2472 17.3177 27.4214 17.3835 27.5757C17.4493 27.73 17.5736 27.8519 17.7293 27.9146C17.8849 27.9772 18.059 27.9754 18.2134 27.9097L21.9047 26.3309L25.5936 24.7521C25.7308 24.6949 25.8435 24.5912 25.9119 24.4592C25.9802 24.3272 25.9999 24.1753 25.9675 24.0302C25.935 23.8851 25.8525 23.7561 25.7344 23.6658C25.6163 23.5755 25.4701 23.5297 25.3216 23.5364Z" fill="white"/>
</svg>
