<svg width="61" height="61" viewBox="0 0 61 61" fill="none" xmlns="http://www.w3.org/2000/svg">
<g opacity="0.7">
<path fill-rule="evenodd" clip-rule="evenodd" d="M31.145 5.6568C31.1412 5.65803 31.1375 5.65928 31.1337 5.66055C31.1275 5.66049 31.1212 5.66049 31.115 5.66055C31.0048 5.66844 30.8969 5.69573 30.7963 5.74116L9.13111 15.0067C8.90865 15.0418 8.70627 15.1559 8.56101 15.328C8.41575 15.5001 8.33733 15.7187 8.34008 15.9439V44.0648C8.33898 44.1984 8.36647 44.3307 8.42068 44.4528C8.42191 44.4566 8.42316 44.4604 8.42443 44.4641C8.43205 44.4812 8.44017 44.4981 8.4488 44.5147C8.54952 44.717 8.71993 44.8761 8.92867 44.9627L30.6107 54.232C30.7957 54.3653 31.023 54.4266 31.2499 54.4044C31.4141 54.3958 31.5732 54.3441 31.7111 54.2545L53.4437 44.9627C53.5962 44.9007 53.7297 44.7996 53.8307 44.6696C53.9317 44.5397 53.9967 44.3854 54.0192 44.2223C54.0222 44.2055 54.0247 44.1886 54.0267 44.1717C54.0283 44.1567 54.0295 44.1417 54.0304 44.1267C54.0308 44.1111 54.0308 44.0954 54.0304 44.0798C54.0305 44.0748 54.0305 44.0698 54.0304 44.0648V15.9439C54.0329 15.7216 53.9561 15.5056 53.814 15.3346C53.6718 15.1636 53.4735 15.0487 53.2544 15.0104L31.5723 5.74116C31.5533 5.73175 31.5339 5.723 31.5142 5.71491C31.5117 5.71365 31.5092 5.7124 31.5067 5.71116C31.4789 5.70299 31.4508 5.69611 31.4224 5.69054C31.413 5.6879 31.4037 5.6854 31.3943 5.68305C31.3732 5.67731 31.3519 5.67231 31.3305 5.66805C31.3212 5.66666 31.3118 5.66541 31.3024 5.6643C31.2818 5.66237 31.2612 5.66112 31.2406 5.66055C31.2088 5.65768 31.1769 5.65643 31.145 5.6568ZM31.1843 7.61563L35.7787 9.57821L16.3066 17.9065C16.2876 17.9146 16.2688 17.9234 16.2504 17.9328L11.6542 15.9664L31.1862 7.61563H31.1843ZM38.163 10.5998L43.7377 12.9823L23.902 21.4661C23.7187 21.5449 23.5654 21.6801 23.4642 21.852C23.3631 22.024 23.3194 22.2237 23.3396 22.4221C23.3363 22.4583 23.335 22.4946 23.3359 22.5308V32.5593L21.304 29.5095C21.1773 29.3197 20.9858 29.1826 20.7653 29.1239C20.5447 29.0653 20.3104 29.0891 20.1062 29.1909L17.7125 30.3868V19.3461L38.163 10.5998ZM46.122 14.0001L50.7201 15.9664L31.1862 24.3172L26.5919 22.3546L46.0677 14.0263C46.0867 14.0182 46.1054 14.0095 46.1239 14.0001H46.122ZM10.2146 17.3873L15.838 19.7922V31.9032C15.838 32.0631 15.8789 32.2202 15.9567 32.3598C16.0346 32.4994 16.1469 32.6167 16.2829 32.7007C16.4188 32.7846 16.5741 32.8324 16.7337 32.8395C16.8934 32.8466 17.0522 32.8127 17.1951 32.7411L20.2018 31.2359L23.4409 36.0946C23.5437 36.2926 23.7139 36.4475 23.9207 36.5313C23.9484 36.542 23.9765 36.5514 24.0051 36.5594L24.0088 36.5632C24.0688 36.5805 24.1303 36.5918 24.1925 36.5969C24.2237 36.5997 24.255 36.601 24.2863 36.6007C24.3175 36.601 24.3488 36.5997 24.38 36.5969C24.4115 36.5923 24.4428 36.586 24.4737 36.5782C24.4926 36.5738 24.5113 36.5688 24.5299 36.5632C24.5406 36.5609 24.5512 36.5584 24.5618 36.5557C24.7714 36.4897 24.9512 36.3523 25.0697 36.1672C25.1883 35.9822 25.2381 35.7614 25.2104 35.5435V23.8055L30.2471 25.9574V52.0388L10.2146 43.4725V17.3873ZM52.156 17.391V43.4725L32.1216 52.0426V25.9574L52.156 17.391ZM40.3899 38.9325C40.3861 38.9337 40.3824 38.935 40.3786 38.9363C40.2621 38.9419 40.1477 38.9692 40.0412 39.0169L34.5771 41.3525C34.3484 41.4499 34.1678 41.6342 34.075 41.8648C33.9822 42.0954 33.9848 42.3534 34.0823 42.5821C34.1797 42.8108 34.364 42.9914 34.5946 43.0842C34.8252 43.177 35.0832 43.1744 35.3119 43.077L40.7816 40.7414C40.9892 40.6603 41.1611 40.5079 41.2665 40.3116C41.3719 40.1152 41.4038 39.8878 41.3567 39.67C41.3095 39.4522 41.1863 39.2583 41.0091 39.1232C40.8319 38.988 40.6124 38.9204 40.3899 38.9325ZM45.8446 40.3384C45.73 40.3447 45.6175 40.372 45.5128 40.419L40.0431 42.7546L34.5771 45.0939C34.3484 45.1914 34.1678 45.3757 34.075 45.6063C33.9822 45.8369 33.9848 46.0949 34.0823 46.3236C34.1797 46.5523 34.364 46.7329 34.5946 46.8257C34.8252 46.9185 35.0832 46.9159 35.3119 46.8184L40.7816 44.4791L46.2476 42.1397C46.451 42.055 46.6179 41.9013 46.7193 41.7057C46.8206 41.5101 46.8497 41.285 46.8016 41.07C46.7535 40.855 46.6313 40.6639 46.4562 40.5301C46.2812 40.3963 46.0647 40.3284 45.8446 40.3384Z" fill="#006BE8"/>
</g>
</svg>
