<svg width="45" height="36" viewBox="0 0 35 36" fill="none" xmlns="http://www.w3.org/2000/svg">
<path fill-rule="evenodd" clip-rule="evenodd" d="M17.3986 0.130785C17.3958 0.13168 17.3931 0.132591 17.3903 0.13352C17.3858 0.133475 17.3812 0.133475 17.3766 0.13352C17.2958 0.139273 17.2166 0.159177 17.1427 0.192314L1.24411 6.9509C1.08086 6.97652 0.93235 7.05971 0.825753 7.18525C0.719157 7.31079 0.661604 7.47029 0.663626 7.63456V28.1469C0.662821 28.2443 0.682987 28.3408 0.722774 28.4299C0.723674 28.4326 0.724591 28.4354 0.725526 28.4381C0.731114 28.4506 0.737077 28.4629 0.743408 28.475C0.817315 28.6226 0.942373 28.7386 1.09555 28.8018L17.0066 35.5631C17.1423 35.6604 17.3091 35.7051 17.4756 35.6889C17.5961 35.6826 17.7128 35.6449 17.814 35.5795L33.7622 28.8018C33.8741 28.7566 33.972 28.6828 34.0462 28.588C34.1203 28.4932 34.168 28.3807 34.1845 28.2617C34.1866 28.2495 34.1885 28.2372 34.19 28.2248C34.1911 28.2139 34.1921 28.203 34.1927 28.192C34.193 28.1806 34.193 28.1692 34.1927 28.1578C34.1927 28.1542 34.1927 28.1505 34.1927 28.1469V7.63456C34.1945 7.47235 34.1382 7.31481 34.0339 7.19007C33.9295 7.06533 33.784 6.98153 33.6232 6.95364L17.7122 0.192314C17.6982 0.185455 17.684 0.17907 17.6696 0.173172C17.6678 0.172252 17.6659 0.171341 17.6641 0.170437C17.6437 0.164476 17.623 0.159457 17.6022 0.155397C17.5953 0.153468 17.5885 0.151644 17.5815 0.149928C17.5661 0.145741 17.5505 0.142093 17.5348 0.138989C17.5279 0.137974 17.521 0.137063 17.5141 0.136255C17.499 0.134846 17.4839 0.133934 17.4688 0.13352C17.4454 0.131422 17.422 0.130509 17.3986 0.130785ZM17.4275 1.55962L20.799 2.99119L6.50972 9.06612C6.49576 9.07205 6.482 9.07843 6.46846 9.08527L3.0956 7.65096L17.4289 1.55962H17.4275ZM22.5487 3.73637L26.6396 5.47421L12.0835 11.6626C11.949 11.7201 11.8364 11.8187 11.7622 11.9441C11.688 12.0695 11.656 12.2152 11.6708 12.36C11.6683 12.3863 11.6674 12.4128 11.668 12.4393V19.7544L10.1769 17.5297C10.084 17.3913 9.94346 17.2913 9.78163 17.2485C9.61981 17.2057 9.44783 17.223 9.29797 17.2973L7.54139 18.1696V10.1162L22.5487 3.73637ZM28.3893 6.21666L31.7635 7.65096L17.4289 13.7423L14.0574 12.3107L28.3494 6.2358C28.3633 6.22988 28.3771 6.22349 28.3906 6.21666H28.3893ZM2.03918 8.68738L6.16584 10.4416V19.2758C6.16584 19.3924 6.19584 19.507 6.25298 19.6088C6.31011 19.7106 6.3925 19.7962 6.49229 19.8575C6.59209 19.9187 6.70599 19.9536 6.82316 19.9588C6.94033 19.9639 7.05688 19.9392 7.16174 19.887L9.36812 18.789L11.7451 22.3331C11.8205 22.4776 11.9454 22.5905 12.0972 22.6517C12.1175 22.6595 12.1382 22.6663 12.1591 22.6722L12.1619 22.6749C12.2059 22.6876 12.251 22.6958 12.2967 22.6995C12.3195 22.7016 12.3425 22.7025 12.3654 22.7023C12.3884 22.7025 12.4114 22.7016 12.4342 22.6995C12.4574 22.6961 12.4803 22.6916 12.503 22.6859C12.5169 22.6826 12.5306 22.679 12.5443 22.6749C12.5521 22.6732 12.5599 22.6714 12.5677 22.6694C12.7215 22.6214 12.8534 22.5211 12.9404 22.3861C13.0274 22.2512 13.0639 22.0901 13.0436 21.9311V13.369L16.7397 14.9387V33.9634L2.03918 27.7148V8.68738ZM32.8172 8.69012V27.7148L18.1153 33.9661V14.9387L32.8172 8.69012ZM24.1828 24.4032C24.1801 24.4041 24.1773 24.405 24.1746 24.4059C24.0891 24.41 24.0051 24.43 23.927 24.4647L19.9172 26.1684C19.7494 26.2395 19.6169 26.3739 19.5488 26.5421C19.4807 26.7103 19.4826 26.8985 19.5541 27.0653C19.6256 27.2321 19.7608 27.3639 19.9301 27.4316C20.0993 27.4993 20.2886 27.4974 20.4564 27.4263L24.4703 25.7226C24.6226 25.6635 24.7488 25.5524 24.8261 25.4091C24.9034 25.2659 24.9269 25.1 24.8923 24.9411C24.8577 24.7823 24.7672 24.6409 24.6372 24.5423C24.5072 24.4437 24.3461 24.3944 24.1828 24.4032ZM28.1857 25.4287C28.1016 25.4333 28.0191 25.4532 27.9422 25.4875L23.9283 27.1911L19.9172 28.8975C19.7494 28.9686 19.6169 29.103 19.5488 29.2712C19.4807 29.4394 19.4826 29.6277 19.5541 29.7945C19.6256 29.9613 19.7608 30.093 19.9301 30.1607C20.0993 30.2284 20.2886 30.2265 20.4564 30.1554L24.4703 28.449L28.4814 26.7426C28.6306 26.6808 28.7532 26.5687 28.8275 26.426C28.9019 26.2833 28.9233 26.1192 28.888 25.9624C28.8527 25.8055 28.763 25.6661 28.6345 25.5685C28.5061 25.4709 28.3472 25.4214 28.1857 25.4287Z" fill="white"/>
</svg>
