<svg width="18" height="18" viewBox="0 0 18 18" fill="none" xmlns="http://www.w3.org/2000/svg">
<path d="M15.675 4.79605L14.5026 5.67533C14.2259 5.88287 13.8893 5.99506 13.5434 5.99506H10.859C10.3813 5.99506 9.94468 6.26493 9.73108 6.69214V6.69214C9.46748 7.21934 9.60425 7.85882 10.0604 8.23207L11.6591 9.54007C12.9172 10.5694 13.5683 12.166 13.3888 13.7816L13.3728 13.9251C13.3092 14.4976 13.1685 15.0589 12.9546 15.5938L12.4776 16.7862" stroke="#333333" stroke-width="1.13034"/>
<path d="M2.08643 8.39309L4.67477 7.9617C5.7568 7.78136 6.69487 8.71943 6.51453 9.80146L6.40701 10.4466C6.2145 11.6016 6.79783 12.7472 7.84518 13.2708V13.2708C8.68382 13.6901 9.11871 14.6357 8.8913 15.5453L8.48116 17.1859" stroke="#333333" stroke-width="1.13034"/>
<circle cx="9.67995" cy="9.59211" r="7.42825" stroke="#333333" stroke-width="1.13034"/>
</svg>
