<svg width="61" height="61" viewBox="0 0 61 61" fill="none" xmlns="http://www.w3.org/2000/svg">
<path d="M13.9928 25.3391L12.8572 24.8168L13.9928 25.3391ZM14.7714 51.0663L13.8875 51.9501L14.7714 51.0663ZM46.8514 51.0663L45.9675 50.1824H45.9675L46.8514 51.0663ZM43.0767 20.5324L43.8902 19.5833L43.0767 20.5324ZM40.576 18.3889L39.7625 19.338L40.576 18.3889ZM21.0468 18.3889L21.8603 19.338L21.0468 18.3889ZM18.5461 20.5324L17.7326 19.5833H17.7326L18.5461 20.5324ZM14.5565 31.9244C14.5565 28.4147 14.5832 27.0469 15.1285 25.8614L12.8572 24.8168C12.0297 26.6158 12.0565 28.6435 12.0565 31.9244H14.5565ZM14.5565 42.5283V31.9244H12.0565V42.5283H14.5565ZM15.6552 50.1824C15.1938 49.7209 14.8929 49.073 14.7284 47.8497C14.5591 46.5904 14.5565 44.9214 14.5565 42.5283H12.0565C12.0565 44.8507 12.0538 46.7182 12.2507 48.1828C12.4525 49.6833 12.8841 50.9467 13.8875 51.9501L15.6552 50.1824ZM23.3093 51.2811C20.9163 51.2811 19.2472 51.2785 17.9879 51.1092C16.7646 50.9447 16.1167 50.6438 15.6552 50.1824L13.8875 51.9501C14.8909 52.9535 16.1543 53.3851 17.6548 53.5869C19.1194 53.7838 20.9869 53.7811 23.3093 53.7811V51.2811ZM38.3135 51.2811H23.3093V53.7811H38.3135V51.2811ZM45.9675 50.1824C45.506 50.6438 44.8581 50.9447 43.6348 51.1092C42.3755 51.2785 40.7065 51.2811 38.3135 51.2811V53.7811C40.6358 53.7811 42.5033 53.7838 43.9679 53.5869C45.4685 53.3851 46.7319 52.9535 47.7353 51.9501L45.9675 50.1824ZM47.0663 42.5283C47.0663 44.9214 47.0636 46.5904 46.8943 47.8497C46.7298 49.073 46.429 49.7209 45.9675 50.1824L47.7353 51.9501C48.7387 50.9467 49.1703 49.6833 49.372 48.1828C49.5689 46.7182 49.5663 44.8507 49.5663 42.5283H47.0663ZM47.0663 31.9244V42.5283H49.5663V31.9244H47.0663ZM46.4943 25.8614C47.0395 27.0469 47.0663 28.4147 47.0663 31.9244H49.5663C49.5663 28.6435 49.593 26.6158 48.7655 24.8168L46.4943 25.8614ZM42.2632 21.4814C44.928 23.7655 45.949 24.6759 46.4943 25.8614L48.7655 24.8168C47.9381 23.0178 46.3812 21.7185 43.8902 19.5833L42.2632 21.4814ZM39.7625 19.338L42.2632 21.4814L43.8902 19.5833L41.3895 17.4398L39.7625 19.338ZM30.8114 13.648C31.8611 13.648 32.8962 14.0129 34.2981 14.9388C35.7293 15.884 37.4081 17.32 39.7625 19.338L41.3895 17.4398C39.0842 15.4639 37.2684 13.9044 35.6759 12.8527C34.0542 11.7816 32.5368 11.148 30.8114 11.148V13.648ZM21.8603 19.338C24.2146 17.32 25.8934 15.884 27.3246 14.9388C28.7265 14.0129 29.7616 13.648 30.8114 13.648V11.148C29.0859 11.148 27.5685 11.7816 25.9468 12.8527C24.3544 13.9044 22.5385 15.4639 20.2333 17.4398L21.8603 19.338ZM19.3596 21.4814L21.8603 19.338L20.2333 17.4398L17.7326 19.5833L19.3596 21.4814ZM15.1285 25.8614C15.6737 24.6759 16.6948 23.7655 19.3596 21.4814L17.7326 19.5833C15.2415 21.7185 13.6846 23.0178 12.8572 24.8168L15.1285 25.8614ZM27.0603 38.7771H34.5624V36.2771H27.0603V38.7771ZM35.8131 40.0278V52.5311H38.3131V40.0278H35.8131ZM23.3096 40.0278V52.5311H25.8096V40.0278H23.3096ZM34.5624 38.7771C35.2532 38.7771 35.8131 39.337 35.8131 40.0278H38.3131C38.3131 37.9563 36.6339 36.2771 34.5624 36.2771V38.7771ZM27.0603 36.2771C24.9889 36.2771 23.3096 37.9563 23.3096 40.0278H25.8096C25.8096 39.337 26.3696 38.7771 27.0603 38.7771V36.2771Z" fill="#4D97EF"/>
</svg>
