<svg width="50" height="54" viewBox="0 0 50 54" fill="none" xmlns="http://www.w3.org/2000/svg">
<g clip-path="url(#clip0_5089_2007)" filter="url(#filter0_d_5089_2007)">
<path fill-rule="evenodd" clip-rule="evenodd" d="M45.458 44.0141C45.3804 41.5061 42.1735 37.4056 39.3925 37.0464C36.6452 36.6989 34.6209 35.2501 33.003 33.8797C32.6074 33.5445 32.2507 33.3827 31.9133 33.3827C31.5126 33.3827 31.1583 33.6073 30.8302 34.0712C29.9563 35.3062 28.7982 36.2961 27.6781 37.2546C27.0952 37.7532 26.4921 38.2683 25.9363 38.8124C25.7262 39.0137 25.5533 39.1071 25.3917 39.1071C25.2378 39.1071 25.0809 39.0195 24.9126 38.8388C24.3339 38.2146 23.644 37.6988 22.9764 37.2C22.5766 36.9012 22.1767 36.6024 21.7967 36.2788C19.9056 34.6723 19.1207 32.8618 19.3974 30.7427C19.4058 30.675 19.4058 30.5998 19.4058 30.5238C19.4054 30.376 19.4054 30.2225 19.4783 30.1515C19.5167 30.1135 19.5778 30.0954 19.6656 30.0954C19.7027 30.0954 19.744 30.0986 19.79 30.1053C19.9359 30.1284 20.0789 30.1441 20.2135 30.1441C20.6803 30.1441 20.9743 29.9451 21.1118 29.5357C21.3425 28.8273 20.8317 28.4493 20.3809 28.1166L20.2928 28.0513C18.4514 26.6925 17.0322 24.9027 15.9543 22.5808C15.2398 21.0425 15.1669 19.5007 15.738 17.9978C16.6477 15.5625 17.7661 13.9382 19.4198 12.6896C19.6909 12.4823 19.8546 12.3573 20.0027 12.3573C20.1355 12.3573 20.2903 12.4581 20.5552 12.7173C24.1759 16.2337 27.5455 18.4647 31.16 19.7382C32.0118 20.0395 32.2768 20.4882 32.1038 21.3388L31.9925 21.9205C31.5825 24.0773 31.1946 26.1148 29.4072 27.642C29.1583 27.8534 29.0141 28.1175 29.0014 28.3883C28.9896 28.631 29.0883 28.8655 29.2848 29.0644C29.4721 29.2543 29.6889 29.3508 29.9293 29.3508C30.1858 29.3508 30.4607 29.2419 30.75 29.0271C31.7564 28.2809 32.491 27.3142 32.9338 26.1542C33.5732 24.4907 33.9528 22.9234 34.0945 21.3619C34.1467 20.7448 34.2168 20.3535 34.7542 20.1178C35.2173 19.9175 35.4103 19.5114 35.2703 19.0305C35.1523 18.6351 34.8326 18.4072 34.3712 18.3886C32.0718 18.2883 30.1317 17.3406 27.9252 15.9491C24.0325 13.496 21.133 11.0983 19.6345 7.36796C19.3932 6.75505 19.0702 6.4574 18.6464 6.4574C18.5076 6.4574 18.3575 6.49082 18.2002 6.55685C17.9214 6.67482 17.7337 6.85199 17.643 7.08307C17.5304 7.37075 17.5726 7.74064 17.7654 8.15212C18.0501 8.76018 18.377 9.35701 18.7232 9.98933C18.8856 10.2857 19.053 10.5912 19.2238 10.9119C18.6992 11.0437 18.1559 11.2236 17.6815 11.5889C15.2514 13.4431 13.8689 15.9965 13.4552 19.3961C13.0828 22.4279 14.6507 24.8835 16.401 27.0852C17.477 28.4407 17.3959 29.9779 17.3175 31.4638C17.2766 32.2349 17.2348 33.0332 17.353 33.8051C17.3601 33.8431 17.2592 33.9437 17.1986 34.0041C17.1467 34.056 17.0944 34.1089 17.0555 34.1601C15.986 35.5849 14.7001 36.9223 12.5521 37.0611C12.0068 37.0924 11.4657 37.2509 10.9423 37.4044C10.5615 37.5167 10.1676 37.6323 9.77872 37.6967C7.29763 38.0946 5.64051 39.5302 4.71309 42.0853C4.65994 42.2315 4.58953 42.3891 4.51655 42.551C4.28669 43.0636 4.02654 43.644 4.22014 44.0981C4.31928 44.3309 4.53096 44.5108 4.84978 44.6298C5.00666 44.6891 5.15344 44.718 5.28581 44.718C5.96401 44.718 6.1778 43.9974 6.36672 43.3616C6.41987 43.1833 6.47091 43.0099 6.53039 42.863C7.26504 41.0368 8.47089 39.976 10.2164 39.6202C11.1321 39.4336 12.0417 39.2157 12.951 38.9994C13.4922 38.8706 14.0332 38.7419 14.5756 38.618C14.7679 38.575 14.9408 38.5536 15.104 38.5536C15.5747 38.5536 15.9606 38.7336 16.3191 39.1199C17.2153 40.0924 18.1536 41.05 19.0608 41.978C19.5462 42.4733 20.0321 42.9695 20.5142 43.4706C21.1257 44.1071 21.5871 44.3787 22.0574 44.3787C22.5086 44.3787 22.9835 44.1186 23.5967 43.5333L23.7709 43.3674C24.4567 42.7094 24.8345 42.347 25.1344 42.347C25.4558 42.347 25.7776 42.7722 26.4186 43.6209L26.535 43.7744C26.6869 43.9824 26.8665 44.2169 27.0917 44.3895C27.3279 44.5653 27.6062 44.6669 27.8559 44.6669C28.109 44.6669 28.3131 44.567 28.4497 44.377C28.9745 43.6241 29.6914 43.019 30.3865 42.4337C31.2502 41.7056 32.1443 40.9527 32.6655 39.9108C33.2535 38.7329 34.037 38.1837 35.1294 38.1837C35.5132 38.1837 35.9333 38.2515 36.4124 38.3885C36.679 38.4669 36.959 38.5131 37.2221 38.5512C40.6037 38.9878 42.6306 40.8833 43.4202 44.3474C43.54 44.8855 43.7626 45.5015 44.4316 45.5015C44.4982 45.5015 44.569 45.4958 44.6449 45.4825C45.4917 45.3316 45.4698 44.5069 45.458 44.0141ZM32.62 36.3662L32.5442 36.5231C32.4969 36.623 32.4497 36.7237 32.3881 36.8195C31.2578 38.6687 29.8922 40.2455 28.3318 41.5061C28.1184 41.677 27.9506 41.7571 27.802 41.7571C27.646 41.7571 27.4925 41.6679 27.3179 41.4763C26.9526 41.0719 26.7452 40.7746 27.1813 40.3552C27.7768 39.7897 28.4194 39.2514 29.042 38.7305C30.0003 37.9281 30.9906 37.0993 31.8407 36.1465C31.9436 36.0318 32.0483 35.9731 32.152 35.9731C32.3274 35.9732 32.5012 36.1466 32.62 36.3662ZM21.564 41.6728C21.5129 41.61 21.4627 41.5489 21.4126 41.497C20.8964 40.9728 20.3886 40.4369 19.8808 39.9012C19.1887 39.1714 18.4962 38.4407 17.7801 37.735C17.5207 37.4815 17.3958 37.2495 17.3992 37.0266C17.4043 36.6856 17.7079 36.4041 18.0019 36.1334L18.1545 35.9898C18.3106 35.837 18.4476 35.7595 18.5619 35.7595C18.7661 35.7595 18.9116 36.0211 19.0402 36.2523C19.0924 36.3464 19.1431 36.4364 19.195 36.5073C19.8229 37.3585 20.6685 37.9818 21.4859 38.5844C22.0207 38.9782 22.5736 39.386 23.0548 39.8509L23.1986 39.9804C23.4116 40.1695 23.6132 40.3478 23.6646 40.5962C23.3589 41.1262 22.9059 41.5745 22.2783 41.9666C22.199 42.0178 22.126 42.0426 22.0565 42.0426C21.8689 42.0426 21.7137 41.8545 21.564 41.6728Z" fill="#4D9FFF"/>
<path fill-rule="evenodd" clip-rule="evenodd" d="M10.4691 25.1148C10.6429 25.1363 10.8032 25.147 10.9499 25.147C11.9174 25.147 12.3421 24.6624 12.37 23.5268C12.4101 21.7054 12.4075 19.9167 12.3619 18.2112C12.27 15.169 12.7663 12.2515 13.8794 9.29236C14.6912 7.11913 16.2289 5.38299 18.449 4.13228C20.2304 3.13663 22.1578 2.6318 24.178 2.6318C29.1297 2.6318 33.5782 5.66483 34.9971 10.0081C35.8431 12.5784 36.1812 14.8903 36.0312 17.0863C36.1223 19.0086 35.9923 20.7112 35.6348 22.291C35.2612 23.8868 34.8452 25.3038 34.3645 26.623C33.5023 28.989 31.8829 30.5196 29.5507 31.1709L29.4242 31.2065C29.2512 31.256 29.0724 31.3063 28.9138 31.3063C28.735 31.3063 28.6101 31.2395 28.5224 31.0942C27.7995 29.9129 26.719 29.7536 25.7566 29.7536C25.4697 29.7536 25.1779 29.7684 24.8857 29.7832L24.7111 29.7924C23.2346 29.8708 22.2903 30.7772 22.1857 32.2169C22.0714 33.6649 23.022 34.857 24.4462 35.051C24.7907 35.0981 25.1025 35.1212 25.3986 35.1212C26.5579 35.1212 27.4562 34.7546 28.1453 34C28.6337 33.4759 29.2977 33.2587 29.8838 33.1151C33.219 32.2747 35.3926 30.1538 36.5271 26.6312C36.7869 25.8304 37.148 25.5481 37.9568 25.5135C39.9028 25.4193 41.1056 24.4617 41.5349 22.6653C41.9946 20.7381 41.8597 18.7881 41.1335 16.8696C40.7648 15.8975 40.1905 15.3659 39.4726 15.332C38.1922 15.2557 38.069 14.4611 37.9256 13.541L37.9053 13.4085C37.4616 10.5355 36.7042 8.34209 35.5182 6.50523C33.6989 3.66293 29.3717 0.603394 24.172 0.603394C22.8777 0.603394 21.6061 0.802757 20.3931 1.19618C16.4649 2.47493 13.9922 4.40253 12.6115 7.26306C11.4905 9.58579 10.7958 11.7412 10.4876 13.8526C10.378 14.5976 10.1017 14.8729 9.394 14.9423C8.13381 15.0591 7.3215 15.8553 7.10642 17.1844C6.93861 18.2792 6.76356 19.5748 6.73822 20.887C6.68351 23.7816 7.5553 24.7689 10.4691 25.1148ZM9.70528 17.0052L9.75421 17.0827C10.1278 17.1128 10.219 17.3704 10.2447 17.7745L10.2856 18.6004C10.3438 19.7789 10.402 20.9607 10.44 22.1362L10.4464 22.2832C10.4678 22.6964 10.4514 22.9511 10.0469 22.9986C9.9938 23.0052 9.94184 23.0084 9.89135 23.0084C9.46872 23.0084 9.14321 22.7715 8.97531 22.3426C8.80117 21.877 8.81467 21.4068 8.82944 20.9086C8.83578 20.6944 8.84165 20.4798 8.83238 20.2676C8.80705 19.2975 8.8982 18.4456 9.11071 17.6621C9.21949 17.2601 9.40134 17.0809 9.69986 17.0809V17.0058C9.70197 17.006 9.70317 17.0052 9.70528 17.0052ZM38.6982 17.3378C38.9825 17.3378 39.1959 17.5166 39.3325 17.8698C39.6598 18.6822 39.8353 19.5832 39.8032 20.2841C39.7871 21.8077 39.675 22.9284 38.3642 23.4777C38.1415 23.5694 37.9727 23.6135 37.8463 23.6135C37.7518 23.6135 37.6826 23.5885 37.6354 23.536C37.5452 23.4348 37.5197 23.2243 37.5611 22.9098C37.6285 22.4112 37.7171 21.915 37.8049 21.4184C37.998 20.3245 38.1988 19.1936 38.1718 18.0514C38.1633 17.6567 38.2358 17.3851 38.6172 17.3422C38.646 17.3391 38.6721 17.3378 38.6982 17.3378Z" fill="#4D9FFF"/>
</g>
<defs>
<filter id="filter0_d_5089_2007" x="-2.68863" y="0.109985" width="55" height="54" filterUnits="userSpaceOnUse" color-interpolation-filters="sRGB">
<feFlood flood-opacity="0" result="BackgroundImageFix"/>
<feColorMatrix in="SourceAlpha" type="matrix" values="0 0 0 0 0 0 0 0 0 0 0 0 0 0 0 0 0 0 127 0" result="hardAlpha"/>
<feOffset dy="4"/>
<feGaussianBlur stdDeviation="2"/>
<feComposite in2="hardAlpha" operator="out"/>
<feColorMatrix type="matrix" values="0 0 0 0 0 0 0 0 0 0 0 0 0 0 0 0 0 0 0.25 0"/>
<feBlend mode="normal" in2="BackgroundImageFix" result="effect1_dropShadow_5089_2007"/>
<feBlend mode="normal" in="SourceGraphic" in2="effect1_dropShadow_5089_2007" result="shape"/>
</filter>
<clipPath id="clip0_5089_2007">
<rect width="47" height="46" fill="white" transform="translate(1.31137 0.109985)"/>
</clipPath>
</defs>
</svg>
