<svg width="44" height="14" viewBox="0 0 44 14" fill="none" xmlns="http://www.w3.org/2000/svg">
<path d="M9.80455 1.21166C10.1082 0.964198 10.4617 0.935661 10.6128 0.955375C10.6128 0.955375 10.6325 1.4088 10.6128 1.42852C10.5638 1.47755 10.1003 1.31023 9.98197 2.00022C9.94255 2.5325 9.98197 4.05048 9.98197 4.05048H9.44969C9.47598 3.24877 9.27228 1.64539 9.80455 1.21166Z" fill="white"/>
<path d="M3.97729 11.9244C3.97729 12.643 3.39476 13.2255 2.67617 13.2255C1.95759 13.2255 1.37505 12.643 1.37505 11.9244C1.37505 11.2058 1.95759 10.6233 2.67617 10.6233C3.39476 10.6233 3.97729 11.2058 3.97729 11.9244Z" stroke="white" stroke-width="0.749131"/>
<path d="M19.72 11.9244C19.72 12.643 19.1374 13.2255 18.4188 13.2255C17.7003 13.2255 17.1177 12.643 17.1177 11.9244C17.1177 11.2058 17.7003 10.6233 18.4188 10.6233C19.1374 10.6233 19.72 11.2058 19.72 11.9244Z" stroke="white" stroke-width="0.749131"/>
<path d="M23.7683 11.9244C23.7683 12.643 23.1858 13.2255 22.4672 13.2255C21.7486 13.2255 21.1661 12.643 21.1661 11.9244C21.1661 11.2058 21.7486 10.6233 22.4672 10.6233C23.1858 10.6233 23.7683 11.2058 23.7683 11.9244Z" stroke="white" stroke-width="0.749131"/>
<mask id="path-5-inside-1_2333_1836" fill="white">
<path d="M0.0298983 10.1739H0.388678V6.86892C0.388678 6.85291 0.401292 6.83974 0.417289 6.83905L5.91363 6.60201C5.92632 6.60146 5.93728 6.59295 5.94096 6.58079L6.50618 4.7112C6.51199 4.69201 6.49762 4.67265 6.47756 4.67265H6.25085C6.22898 4.67265 6.21451 4.64993 6.22376 4.63011L6.50979 4.01719C6.5147 4.00667 6.52526 3.99994 6.53688 3.99994H13.0058C13.0223 3.99994 13.0357 4.01332 13.0357 4.02984V4.44841C13.0357 4.46493 13.0491 4.47831 13.0656 4.47831H13.7084C13.7249 4.47831 13.7383 4.4917 13.7383 4.50821V9.57598H24.9651C24.9816 9.57598 24.995 9.58937 24.995 9.60588V11.8333C24.995 11.8498 24.9816 11.8632 24.9651 11.8632H24.3821C24.3656 11.8632 24.3521 11.8509 24.3514 11.8344C24.3419 11.5985 24.2115 9.99456 22.4387 9.99456C20.6717 9.99456 20.6639 11.588 20.6731 11.832C20.6737 11.8494 20.6598 11.8632 20.6423 11.8632H20.3171C20.3002 11.8632 20.2864 11.8502 20.2864 11.8332C20.286 11.5932 20.216 9.99456 18.4323 9.99456C16.6492 9.99456 16.5915 11.5922 16.593 11.833C16.5931 11.85 16.5793 11.8632 16.5622 11.8632H9.43293C9.41641 11.8632 9.40303 11.8766 9.40303 11.8931V12.3715C9.40303 12.388 9.38964 12.4014 9.37313 12.4014H5.45645C5.43993 12.4014 5.42655 12.388 5.42655 12.3715V12.1472C5.42655 12.1307 5.41316 12.1173 5.39665 12.1173H4.65071C4.63362 12.1173 4.61985 12.1041 4.62007 12.087C4.62338 11.8286 4.57958 10.0095 2.69085 10.0095C0.801635 10.0095 0.745394 11.8296 0.746895 12.0872C0.746994 12.1042 0.733272 12.1173 0.716261 12.1173H0.0298983C0.0133859 12.1173 0 12.104 0 12.0874V10.2038C0 10.1873 0.0133859 10.1739 0.0298983 10.1739Z"/>
</mask>
<path d="M0.388678 10.1739V10.5626H0.777357V10.1739H0.388678ZM0.746895 12.0872L1.13557 12.0849V12.0849L0.746895 12.0872ZM4.62007 12.087L4.23143 12.082V12.082L4.62007 12.087ZM16.593 11.833L16.2043 11.8353V11.8353L16.593 11.833ZM20.2864 11.8332L20.6751 11.8325V11.8325L20.2864 11.8332ZM20.6731 11.832L21.0615 11.8174V11.8174L20.6731 11.832ZM24.3514 11.8344L23.9631 11.8502V11.8502L24.3514 11.8344ZM13.7383 9.57598H13.3496V9.96466H13.7383V9.57598ZM6.50979 4.01719L6.15757 3.85283L6.15757 3.85283L6.50979 4.01719ZM6.22376 4.63011L6.57597 4.79448L6.57597 4.79448L6.22376 4.63011ZM6.50618 4.7112L6.13414 4.59872L6.13414 4.59872L6.50618 4.7112ZM5.94096 6.58079L5.56891 6.46831L5.56891 6.46832L5.94096 6.58079ZM5.91363 6.60201L5.89688 6.21369L5.89688 6.21369L5.91363 6.60201ZM0.417289 6.83905L0.400542 6.45073H0.400539L0.417289 6.83905ZM0.388678 9.78527H0.0298983V10.5626H0.388678V9.78527ZM-0.388678 10.2038V12.0874H0.388678V10.2038H-0.388678ZM0.0298983 12.506H0.716261V11.7287H0.0298983V12.506ZM1.13557 12.0849C1.13494 11.9769 1.1485 11.5329 1.35566 11.1292C1.45627 10.9331 1.59826 10.755 1.80049 10.6246C2.001 10.4953 2.28363 10.3982 2.69085 10.3982V9.62083C2.15346 9.62083 1.72061 9.75119 1.37928 9.97124C1.03967 10.1902 0.813466 10.4831 0.66405 10.7743C0.371159 11.345 0.357351 11.9398 0.358223 12.0894L1.13557 12.0849ZM2.69085 10.3982C3.09801 10.3982 3.37944 10.4953 3.57833 10.6241C3.7789 10.7539 3.9192 10.9314 4.01821 11.1269C4.22223 11.5299 4.23281 11.9735 4.23143 12.082L5.00872 12.0919C5.01064 11.9421 5.00097 11.347 4.71173 10.7758C4.56413 10.4843 4.33954 10.1908 4.0008 9.97151C3.66037 9.75112 3.22806 9.62083 2.69085 9.62083V10.3982ZM4.65071 12.506H5.39665V11.7287H4.65071V12.506ZM5.03787 12.1472V12.3715H5.81523V12.1472H5.03787ZM5.45645 12.7901H9.37313V12.0127H5.45645V12.7901ZM9.79171 12.3715V11.8931H9.01435V12.3715H9.79171ZM9.43293 12.2519H16.5622V11.4745H9.43293V12.2519ZM16.9816 11.8307C16.981 11.7335 16.9946 11.3539 17.1837 11.0113C17.275 10.846 17.4046 10.6939 17.5923 10.5813C17.7796 10.469 18.0464 10.3832 18.4323 10.3832V9.60588C17.9267 9.60588 17.5176 9.71976 17.1926 9.91457C16.8681 10.1091 16.6491 10.3714 16.5032 10.6356C16.218 11.1521 16.2034 11.6916 16.2043 11.8353L16.9816 11.8307ZM18.4323 10.3832C18.8184 10.3832 19.0863 10.4691 19.2753 10.5819C19.4647 10.6949 19.5961 10.8478 19.6889 11.0137C19.8812 11.3572 19.8975 11.7374 19.8977 11.8339L20.6751 11.8325C20.6748 11.689 20.656 11.1499 20.3672 10.634C20.2196 10.3703 19.999 10.1085 19.6737 9.91434C19.3478 9.71985 18.9381 9.60588 18.4323 9.60588V10.3832ZM20.3171 12.2519H20.6423V11.4745H20.3171V12.2519ZM21.0615 11.8174C21.0577 11.7175 21.0598 11.3394 21.2351 11.0002C21.3194 10.8372 21.4409 10.6884 21.6197 10.5784C21.7982 10.4686 22.057 10.3832 22.4387 10.3832V9.60588C21.9369 9.60588 21.5321 9.71965 21.2125 9.91627C20.8931 10.1127 20.682 10.3774 20.5446 10.6433C20.2765 11.1618 20.2792 11.7024 20.2847 11.8466L21.0615 11.8174ZM22.4387 10.3832C23.1794 10.3832 23.5322 10.7044 23.722 11.0243C23.9287 11.3727 23.9593 11.7562 23.9631 11.8502L24.7398 11.8186C24.734 11.6767 24.6946 11.1402 24.3905 10.6277C24.0696 10.0867 23.4708 9.60588 22.4387 9.60588V10.3832ZM24.3821 12.2519H24.9651V11.4745H24.3821V12.2519ZM25.3837 11.8333V9.60588H24.6063V11.8333H25.3837ZM24.9651 9.1873H13.7383V9.96466H24.9651V9.1873ZM14.127 9.57598V4.50821H13.3496V9.57598H14.127ZM13.7084 4.08963H13.0656V4.86699H13.7084V4.08963ZM13.4244 4.44841V4.02984H12.647V4.44841H13.4244ZM13.0058 3.61126H6.53688V4.38862H13.0058V3.61126ZM6.15757 3.85283L5.87154 4.46574L6.57597 4.79448L6.862 4.18156L6.15757 3.85283ZM6.25085 5.06133H6.47756V4.28397H6.25085V5.06133ZM6.13414 4.59872L5.56891 6.46831L6.31301 6.69327L6.87823 4.82368L6.13414 4.59872ZM5.89688 6.21369L0.400542 6.45073L0.434036 7.22736L5.93037 6.99033L5.89688 6.21369ZM0 6.86892V10.1739H0.777357V6.86892H0ZM5.87155 4.46574C5.74203 4.74326 5.94462 5.06133 6.25085 5.06133V4.28397C6.51334 4.28397 6.68698 4.55661 6.57597 4.79448L5.87155 4.46574ZM6.53688 3.61126C6.37425 3.61126 6.22635 3.70546 6.15757 3.85283L6.862 4.18156C6.80305 4.30788 6.67627 4.38862 6.53688 4.38862V3.61126ZM13.4244 4.02984C13.4244 3.79867 13.237 3.61126 13.0058 3.61126V4.38862C12.8076 4.38862 12.647 4.22798 12.647 4.02984H13.4244ZM13.0656 4.08963C13.2637 4.08963 13.4244 4.25026 13.4244 4.44841H12.647C12.647 4.6796 12.8344 4.86699 13.0656 4.86699V4.08963ZM14.127 4.50821C14.127 4.27704 13.9396 4.08963 13.7084 4.08963V4.86699C13.5102 4.86699 13.3496 4.70636 13.3496 4.50821H14.127ZM25.3837 9.60588C25.3837 9.37471 25.1963 9.1873 24.9651 9.1873V9.96466C24.767 9.96466 24.6063 9.80402 24.6063 9.60588H25.3837ZM24.9651 12.2519C25.1963 12.2519 25.3837 12.0645 25.3837 11.8333H24.6063C24.6063 11.6352 24.767 11.4745 24.9651 11.4745V12.2519ZM23.9631 11.8502C23.9727 12.0854 24.1677 12.2519 24.3821 12.2519V11.4745C24.5635 11.4745 24.7316 11.6163 24.7398 11.8186L23.9631 11.8502ZM16.5622 12.2519C16.7833 12.2519 16.9831 12.0746 16.9816 11.8306L16.2043 11.8353C16.203 11.6254 16.3753 11.4745 16.5622 11.4745V12.2519ZM9.79171 11.8931C9.79171 12.0912 9.63108 12.2519 9.43293 12.2519V11.4745C9.20175 11.4745 9.01435 11.6619 9.01435 11.8931H9.79171ZM9.37313 12.7901C9.60429 12.7901 9.79171 12.6027 9.79171 12.3715H9.01435C9.01435 12.1733 9.17499 12.0127 9.37313 12.0127V12.7901ZM5.03787 12.3715C5.03787 12.6026 5.22527 12.7901 5.45645 12.7901V12.0127C5.6546 12.0127 5.81523 12.1733 5.81523 12.3715H5.03787ZM4.23143 12.082C4.2283 12.3266 4.42811 12.506 4.65071 12.506V11.7287C4.83913 11.7287 5.01141 11.8815 5.00872 12.0919L4.23143 12.082ZM0.400539 6.45073C0.176596 6.46039 0 6.64475 0 6.86892H0.777357C0.777357 7.06106 0.625988 7.21908 0.434038 7.22736L0.400539 6.45073ZM0.716261 12.506C0.93803 12.506 1.13698 12.3281 1.13557 12.0849L0.358223 12.0894C0.357005 11.8803 0.528514 11.7287 0.716261 11.7287V12.506ZM20.6423 12.2519C20.8682 12.2519 21.0708 12.0669 21.0615 11.8174L20.2847 11.8466C20.2766 11.632 20.4514 11.4745 20.6423 11.4745V12.2519ZM5.56891 6.46832C5.61303 6.32237 5.74457 6.22026 5.89688 6.21369L5.93037 6.99033C6.10808 6.98266 6.26154 6.86353 6.31301 6.69326L5.56891 6.46832ZM-0.388678 12.0874C-0.388678 12.3186 -0.201284 12.506 0.0298983 12.506V11.7287C0.228056 11.7287 0.388678 11.8893 0.388678 12.0874H-0.388678ZM5.39665 12.506C5.19851 12.506 5.03787 12.3454 5.03787 12.1472H5.81523C5.81523 11.9161 5.62781 11.7287 5.39665 11.7287V12.506ZM19.8977 11.8339C19.8982 12.0765 20.0972 12.2519 20.3171 12.2519V11.4745C20.5031 11.4745 20.6747 11.6239 20.6751 11.8325L19.8977 11.8339ZM6.47756 5.06133C6.23691 5.06133 6.06449 4.82908 6.13414 4.59872L6.87823 4.82368C6.95948 4.55494 6.75833 4.28397 6.47756 4.28397V5.06133ZM0.0298983 9.78527C-0.201272 9.78527 -0.388678 9.97267 -0.388678 10.2038H0.388678C0.388678 10.402 0.228044 10.5626 0.0298983 10.5626V9.78527Z" fill="white" mask="url(#path-5-inside-1_2333_1836)"/>
<path d="M7.21802 4.86699L9.28321 4.86699V6.46655H6.82758L7.21802 4.86699Z" stroke="white" stroke-width="0.298983"/>
<path d="M35.2668 11.9244C35.2668 12.643 34.6843 13.2255 33.9657 13.2255C33.2471 13.2255 32.6646 12.643 32.6646 11.9244C32.6646 11.2058 33.2471 10.6233 33.9657 10.6233C34.6843 10.6233 35.2668 11.2058 35.2668 11.9244Z" stroke="white" stroke-width="0.749131"/>
<path d="M40.0207 11.9244C40.0207 12.643 39.4382 13.2255 38.7196 13.2255C38.001 13.2255 37.4185 12.643 37.4185 11.9244C37.4185 11.2058 38.001 10.6233 38.7196 10.6233C39.4382 10.6233 40.0207 11.2058 40.0207 11.9244Z" stroke="white" stroke-width="0.749131"/>
<path d="M31.8366 11.5258C31.829 11.5665 31.8228 11.6044 31.8179 11.639H25.563V9.23214V9.0079H25.3388H14.3063V1.11474H43.1731V11.639H40.9164C40.9097 11.603 40.9015 11.5632 40.8915 11.5203C40.8472 11.3306 40.7663 11.0751 40.619 10.8175C40.3183 10.2918 39.7452 9.77031 38.7033 9.77031C38.1902 9.77031 37.7903 9.89718 37.4827 10.099C37.1763 10.3001 36.9745 10.5669 36.8422 10.8273C36.7103 11.0868 36.6455 11.3437 36.6133 11.5338C36.607 11.5714 36.6018 11.6066 36.5977 11.639H36.0742C36.068 11.6046 36.0605 11.5669 36.0514 11.5263C36.0094 11.3391 35.9321 11.0866 35.7898 10.831C35.4997 10.3097 34.9431 9.78679 33.9232 9.77034C33.4194 9.76221 33.024 9.8856 32.7179 10.0864C32.4135 10.2861 32.2106 10.5537 32.0759 10.8149C31.9415 11.0753 31.8724 11.3341 31.8366 11.5258Z" stroke="white" stroke-width="0.448475"/>
</svg>
