<svg width="48" height="42" viewBox="0 0 48 42" fill="none" xmlns="http://www.w3.org/2000/svg">
<path d="M22.4405 2.7904C23.8005 2.7904 24.9005 2.8004 25.9005 2.8304C28.2005 2.9004 30.2905 3.0504 32.3005 3.3104C34.1305 3.5404 36.0005 3.8704 37.8005 4.1804C38.4905 4.3004 39.1705 4.4204 39.8505 4.5404C39.9005 4.5404 39.9205 4.5604 39.9205 4.5604C39.9205 4.5604 39.9405 4.5804 39.9605 4.6104C40.0605 4.7404 40.1405 4.8804 40.2205 5.0204C40.0105 5.0104 39.8005 4.9904 39.6005 4.9804C39.2405 4.9604 38.8805 4.9304 38.5105 4.9104C36.4705 4.7604 34.4205 4.6104 32.3805 4.4504C31.3005 4.3704 30.2105 4.2804 29.1305 4.1904C27.8505 4.0904 26.5605 3.9904 25.2805 3.8904C24.4505 3.8304 23.6205 3.7604 22.7905 3.7004C21.4405 3.6004 20.0905 3.5004 18.7405 3.3904C18.6205 3.3904 18.5105 3.3804 18.3905 3.3804C17.0005 3.3804 15.8405 4.0804 15.2205 5.1604L15.1205 5.2104C15.2205 5.0804 15.3205 4.9404 15.4305 4.8104C15.8505 4.3004 16.3805 3.8204 16.9405 3.3104C17.1205 3.1404 17.3005 2.9804 17.4805 2.8104H18.2005C18.9105 2.8104 19.6105 2.8104 20.3205 2.8104C21.0205 2.8104 21.7205 2.8104 22.4205 2.8104M15.9205 18.0404C16.4405 18.4604 17.1205 18.7104 17.9005 18.7504C18.2705 18.7704 18.5705 18.7904 18.9005 18.8204C19.3205 18.8504 19.7805 18.8904 20.4305 18.9204L39.7205 20.0304L42.1305 20.1704C42.1305 20.5404 42.1305 20.9104 42.1305 21.2804C42.0805 21.2804 42.0305 21.2804 41.9805 21.2804C40.9605 21.2504 39.9405 21.2204 38.9305 21.1804H38.8805C35.0605 21.0604 31.2405 20.9404 27.4105 20.8104C25.5005 20.7504 23.5905 20.6904 21.6905 20.6104C21.6405 20.6104 21.5905 20.6104 21.5405 20.6104C20.5305 20.6104 19.7105 21.0904 19.2705 21.9004C18.7905 22.2404 18.3105 22.5804 17.8305 22.9204C17.0405 23.4804 16.2505 24.0404 15.4505 24.6004C15.1105 24.8504 14.9005 25.1304 14.7805 25.2904L14.7605 25.3204C14.1405 25.5504 13.5105 25.7704 12.8805 26.0004V25.6104C12.9205 24.0604 12.9605 22.4504 13.0305 20.8904C13.0605 20.2904 13.0905 19.6804 13.1205 19.0804C13.4505 19.0804 13.7805 19.0204 14.1105 18.9004C14.3305 18.8304 14.5305 18.7404 14.7205 18.6504L15.2205 19.2704L15.8805 18.0504L15.9305 18.0204M22.4405 0.9104C21.0305 0.9104 19.6205 0.9204 18.2105 0.9204C17.9505 0.9204 17.6905 0.9204 17.4305 0.9204C17.4305 0.9204 17.4305 0.9204 17.4205 0.9204C17.0005 0.9204 16.6305 1.0204 16.3405 1.3004C15.5505 2.0504 14.6905 2.7604 14.0005 3.5904C12.7605 5.0704 11.9905 6.7604 11.8805 8.7004C11.8005 10.2204 11.6605 11.7304 11.5705 13.2504C11.4205 15.7604 11.2705 18.2804 11.1505 20.7904C11.0705 22.5204 11.0405 24.2404 11.0005 25.9704C10.9805 26.8405 11.0005 27.7204 11.0005 28.6004C11.0005 28.6004 11.0805 28.6104 11.1105 28.6104C11.1205 28.6104 11.1305 28.6104 11.1405 28.6104C12.6905 28.0604 14.2405 27.5104 15.7905 26.9404C15.9405 26.8804 16.0505 26.7004 16.1705 26.5704C16.3005 26.4204 16.4005 26.2304 16.5605 26.1204C17.9005 25.1604 19.2605 24.2104 20.6105 23.2504C20.7105 23.1804 20.8305 23.0704 20.8605 22.9604C20.9605 22.5904 21.2005 22.4804 21.5405 22.4804C21.5605 22.4804 21.5905 22.4804 21.6205 22.4804C23.5305 22.5504 25.4505 22.6204 27.3605 22.6804C31.2005 22.8004 35.0405 22.9205 38.8805 23.0504C39.9005 23.0805 40.9205 23.1204 41.9405 23.1504C42.2305 23.1504 42.4505 23.2404 42.4805 23.5704C42.5105 23.9204 42.3705 24.0604 41.9605 24.0604C41.9405 24.0604 41.9205 24.0604 41.8905 24.0604C40.5105 24.0104 39.1305 23.9604 37.7505 23.9204C35.1005 23.8304 32.4605 23.7504 29.8105 23.6604C26.9905 23.5604 24.1705 23.4604 21.3505 23.3704C21.3405 23.3704 21.3305 23.3704 21.3205 23.3704C20.5305 23.3704 19.9205 24.2404 20.2505 24.9504C20.9605 26.5004 21.7005 28.0404 22.4305 29.5803C22.5605 29.8603 22.7805 30.0104 23.1005 30.0204C25.9505 30.0904 28.7905 30.1704 31.6405 30.2504C32.5005 30.2804 33.3505 30.3504 34.2105 30.3804C36.1105 30.4504 38.0105 30.5103 39.9105 30.5803C39.9405 30.5803 39.9705 30.5803 39.9905 30.5803C40.3905 30.5803 40.5905 30.4504 40.7905 30.0604C41.4405 28.7204 42.1005 27.3904 42.7405 26.0504C43.0005 25.5104 43.2605 24.9804 44.0305 24.9504C44.0305 23.1704 44.0305 21.4304 44.0305 19.6904C44.0305 19.4904 44.1505 19.2904 44.2205 19.1004C44.2805 19.1004 44.3405 19.1004 44.3905 19.1004C44.4505 19.2604 44.5505 19.4204 44.5505 19.5804C44.5705 21.4204 44.5805 23.2604 44.5905 25.0904C44.5905 25.2804 44.5505 25.3704 44.3405 25.4104C43.8605 25.4904 43.4705 25.7404 43.2505 26.1704C42.9705 26.7204 42.7305 27.2904 42.4505 27.8804H43.3505C43.8505 27.8804 44.1805 27.6504 44.3405 27.1804C44.6705 27.1404 45.0105 27.1004 45.3605 27.0704C45.3705 26.9904 45.3805 26.9404 45.3805 26.9004C45.3805 25.6104 45.3805 24.3204 45.3805 23.0304C45.3805 22.9404 45.3405 22.8104 45.3005 22.7404C45.0405 22.2904 44.9305 21.8104 44.9105 21.3004C44.8605 19.8604 44.9705 18.4604 45.5205 17.1104C45.6905 16.6804 45.9605 16.3404 46.4705 16.2804C47.0205 16.2304 47.3605 15.8604 47.4005 15.4204C47.4905 14.5004 47.5005 13.5604 47.5205 12.5904C47.5205 12.3304 47.3205 12.1204 47.0505 12.1204C47.0205 12.1204 46.9905 12.1204 46.9605 12.1204C46.8805 12.1204 46.7905 12.1204 46.7105 12.1204C46.6605 12.1204 46.6105 12.1204 46.5705 12.1204C45.9905 12.1204 45.8005 11.9204 45.8005 11.2904C45.8005 10.4504 45.3605 9.8804 44.6105 9.6104C44.1705 9.4504 44.0005 9.2304 44.0005 8.8104C44.0005 8.7904 44.0005 8.7804 44.0005 8.7604C43.8105 8.2804 43.7405 7.7004 43.4105 7.3404C42.9405 6.8204 42.5905 6.2804 42.4305 5.6204C42.2505 4.8504 41.9505 4.1504 41.4805 3.5004C41.1405 3.0404 40.7105 2.7904 40.1705 2.6904C37.6305 2.2604 35.0905 1.7704 32.5305 1.4504C30.3505 1.1804 28.1505 1.0304 25.9505 0.9604C24.7805 0.9304 23.6105 0.9204 22.4405 0.9204V0.9104ZM44.6705 18.4204C36.6205 17.9604 28.5905 17.4904 20.5505 17.0304C19.3805 16.9704 18.8705 16.9004 18.0105 16.8604C17.1805 16.8204 16.7105 16.3604 16.6705 15.5304C16.6205 14.5104 16.6105 13.4904 16.6105 12.4704C16.6105 10.6404 16.6205 8.8204 16.6405 6.9904C16.6405 5.9504 17.3905 5.2604 18.4105 5.2604C18.4705 5.2604 18.5405 5.2604 18.6005 5.2604C20.7805 5.4404 22.9605 5.5904 25.1405 5.7604C27.5105 5.9404 29.8705 6.1404 32.2405 6.3204C34.2905 6.4804 36.3305 6.6304 38.3805 6.7804C39.4505 6.8604 40.5105 6.9204 41.5805 7.0104C42.6705 7.1104 43.1505 7.6304 43.3205 8.8404C43.6905 11.3704 44.0605 13.8904 44.4305 16.4204C44.5205 17.0704 44.5905 17.7204 44.6705 18.4204ZM13.0905 17.2004C12.5405 17.2004 12.1405 16.7804 12.1305 16.1204C12.1205 15.1204 12.1605 14.1304 12.1905 13.1304C12.2105 12.3604 12.2505 11.6004 12.2705 10.8304C12.2905 10.4104 12.4705 10.0704 12.7605 9.7604C13.3305 9.1504 13.8805 8.5304 14.4405 7.9204C14.5805 7.7704 14.7005 7.5904 14.8405 7.4404C14.8905 7.3804 14.9905 7.3604 15.0705 7.3204C15.1005 7.4104 15.1905 7.5304 15.1605 7.5904C15.0205 7.9304 14.8705 8.2604 14.6905 8.5804C14.4205 9.0704 14.1605 9.5504 14.2005 10.1204C14.2105 10.2704 14.2505 10.4204 14.2705 10.5704C14.4005 9.8604 14.4505 9.1404 15.1705 8.5504C15.1705 9.1304 15.1705 9.6304 15.1705 10.1304C15.1705 10.7204 15.1405 11.3204 15.1305 11.9104C15.1005 13.1504 15.0805 14.3904 15.0505 15.6304C15.0505 15.7204 14.9605 15.8104 14.9105 15.9104C14.8505 15.8304 14.7605 15.7704 14.7305 15.6804C14.4105 14.7904 14.3705 13.8804 14.4105 12.9504C14.4305 12.4404 14.4105 11.9304 14.3605 11.4204C14.3105 10.8804 14.0605 10.6704 13.5105 10.6404C13.4605 10.6404 13.4105 10.6404 13.3505 10.6404C13.2905 10.6404 13.2305 10.6404 13.1705 10.6404C12.8405 10.6504 12.5805 10.9104 12.5705 11.2404C12.5705 12.1104 12.5505 12.9604 12.5805 13.8004C12.6005 14.3304 12.9905 14.6604 13.5205 14.7604C13.8805 14.8304 14.1505 15.0404 14.3205 15.3604C14.4105 15.5304 14.4905 15.7104 14.5805 15.8804C14.6705 16.0504 14.7705 16.2204 14.9005 16.4404C14.4305 16.6704 13.9805 16.9604 13.4805 17.1304C13.3405 17.1804 13.2005 17.2004 13.0705 17.2004H13.0905ZM45.3005 17.0904C45.2405 17.0204 45.1405 16.9504 45.1305 16.8604C44.9205 15.4704 44.7305 14.0704 44.5205 12.6804C44.4105 11.9004 44.2805 11.1204 44.1805 10.3404C44.1605 10.1604 44.1805 9.8604 44.2905 9.8104C44.3805 9.7604 44.4605 9.7404 44.5505 9.7404C44.7305 9.7404 44.9105 9.8404 45.0405 10.0204C45.5105 10.6904 45.7205 11.4404 45.6805 12.2604C45.6505 12.8104 45.6805 13.3504 45.6805 13.9004H45.6605C45.6605 14.5604 45.6805 15.2204 45.6605 15.8704C45.6505 16.2104 45.5705 16.5404 45.5105 16.8704C45.4905 16.9504 45.3905 17.0104 45.3205 17.0804L45.3005 17.0904ZM40.8305 25.8604C40.8305 25.8604 40.7905 25.8604 40.7705 25.8604C38.8905 25.8004 37.0205 25.7204 35.1405 25.6604C33.0105 25.6004 30.8905 25.5504 28.7605 25.4904C27.2805 25.4404 25.8005 25.3704 24.3305 25.3204C23.7705 25.3004 23.2105 25.2904 22.6505 25.2804C22.1205 25.2604 21.8405 24.9704 21.8305 24.3804C28.4505 24.4504 35.0605 24.8304 41.6805 24.9804C41.6005 25.6204 41.3605 25.8604 40.8205 25.8604H40.8305ZM39.8405 27.8204C39.8405 27.8204 39.8005 27.8204 39.7705 27.8204C38.3305 27.7704 36.8905 27.7204 35.4505 27.6804C33.7505 27.6404 32.0405 27.6204 30.3405 27.5604C28.1305 27.4804 25.9205 27.3504 23.7205 27.2504C23.1805 27.2204 22.9205 26.9804 22.8805 26.4604C23.8405 26.4304 24.8005 26.4204 25.7505 26.4204C30.7305 26.4204 35.7105 26.7604 40.7105 26.9304C40.6305 27.5804 40.3705 27.8204 39.8505 27.8204H39.8405ZM23.9205 28.3303C29.2105 28.5103 34.4705 28.6904 39.7505 28.8704C39.6205 29.5704 39.4105 29.7604 38.8405 29.7604C38.8005 29.7604 38.7605 29.7604 38.7105 29.7604C37.0205 29.6904 35.3305 29.6303 33.6405 29.5803C30.7105 29.4803 27.7805 29.3904 24.8405 29.3004C24.2505 29.2804 23.9505 28.9903 23.9205 28.3303Z" fill="#006BE8"/>
<path d="M18.5105 30.2004C18.7405 30.2004 18.9805 30.2004 19.2205 30.2004C19.5005 30.2004 19.7805 30.2004 20.0605 30.2004C20.1105 30.3004 20.1605 30.4104 20.2105 30.5104C19.6605 30.4904 19.0805 30.4804 18.5105 30.4804H18.4705V30.1904H18.5205M43.1205 30.7204C43.1205 30.7804 43.1205 30.8404 43.1205 30.8904C43.0905 30.8904 43.0605 30.8904 43.0305 30.8904C43.0605 30.8304 43.0905 30.7704 43.1205 30.7204ZM23.2305 36.9704C23.2605 37.0204 23.2905 37.0804 23.3205 37.1304C23.0505 37.1304 22.7905 37.1304 22.5205 37.1304C22.7705 37.1104 23.0105 37.0504 23.2305 36.9704ZM40.4705 37.3604C40.5205 37.4704 40.5705 37.5704 40.6405 37.6704C40.3105 37.9504 40.0505 38.3304 39.9305 38.7804C39.9105 38.8504 39.8905 38.9204 39.8705 38.9804C39.8305 39.0704 39.8005 39.1204 39.7805 39.1404C39.7405 39.1404 39.6505 39.1604 39.5105 39.1604C39.3805 39.1604 39.2205 39.1604 39.0505 39.1304C38.9705 39.1304 38.9305 39.1004 38.9305 39.1004C38.9305 39.1004 38.8905 39.0604 38.8605 38.9504C38.7905 38.7604 38.7105 38.5804 38.6105 38.4104C38.8905 38.3504 39.1605 38.2704 39.4305 38.1704C39.8705 38.0104 40.2305 37.7204 40.4805 37.3504M15.9905 27.6204C15.9905 27.6204 15.9305 27.6204 15.9005 27.6304C14.0905 28.1704 12.3305 28.7004 10.5705 29.2204C10.1305 29.3504 9.94051 29.6404 9.88051 30.0304C9.84051 30.3104 9.88051 30.6104 9.88051 31.0004C11.0905 30.8104 12.2405 30.6304 13.3805 30.4504C13.4005 30.4504 13.4105 30.4504 13.4305 30.4504C13.6305 30.4504 13.7805 30.6403 13.7305 30.8303C13.6605 31.0903 13.6805 31.3703 13.7505 31.6503C13.7905 31.8003 13.8205 31.9604 13.8405 32.1204C14.0405 33.9104 14.2505 35.6904 14.4405 37.4804C14.4805 37.8804 14.5105 38.2904 14.5405 38.7004C14.5505 38.8604 14.6905 38.9804 14.8505 38.9804H15.0805C22.0505 38.9804 29.0205 39.0004 35.9905 39.0104C36.1405 39.0104 36.2905 39.0104 36.4405 39.0404C36.7505 39.1004 36.9705 39.2304 37.0905 39.5604C37.3805 40.3804 37.9605 40.8804 38.8605 40.9804C39.1005 41.0104 39.3305 41.0204 39.5305 41.0204C40.5905 41.0204 41.1605 40.6504 41.5805 39.7904C41.6605 39.6204 41.7105 39.4404 41.7705 39.2504C41.8105 39.1204 41.9305 39.0304 42.0705 39.0304H43.8305C43.9805 39.0304 44.1105 38.9204 44.1405 38.7804C44.1605 38.6804 44.1805 38.5804 44.2005 38.4804C44.9605 35.4804 45.1105 32.4304 44.9905 29.3504C44.9705 28.9504 44.8405 28.7804 44.4305 28.7104C43.9305 28.6304 43.4205 28.5604 42.9205 28.5004C42.8305 28.4904 42.7505 28.4804 42.6805 28.4804C42.3105 28.4804 42.1005 28.6304 41.8905 29.0204C41.5905 29.6104 41.3005 30.2004 41.0105 30.7904C40.6805 31.4804 40.6105 31.6004 40.0305 31.6004C39.9305 31.6004 39.8205 31.6004 39.6905 31.6004C37.7405 31.5304 35.7905 31.4503 33.8405 31.4003C30.3205 31.3103 26.8005 31.2404 23.2805 31.1704C22.8005 31.1704 22.4905 30.9904 22.3005 30.5404C22.0405 29.9204 21.7405 29.3204 21.4505 28.7204C21.3205 28.4504 21.1305 28.3104 20.8005 28.3104C20.8005 28.3104 20.7805 28.3104 20.7705 28.3104C20.5405 28.3104 20.3105 28.3104 20.0905 28.3104C19.5705 28.3104 19.0505 28.3104 18.5305 28.3004H16.9105C16.7405 28.3004 16.6005 28.4404 16.6005 28.6004V33.0704C16.6005 33.7404 16.6005 34.4103 16.6005 35.0803C16.6005 35.2603 16.6005 35.3204 16.5005 35.3204C16.4605 35.3204 16.4005 35.3204 16.3105 35.3004V27.9304C16.3105 27.7604 16.1605 27.6304 16.0005 27.6304L15.9905 27.6204ZM19.0605 35.2504C18.8605 35.2504 18.6505 35.2504 18.4505 35.2504C17.7905 35.2504 17.4905 34.9603 17.4705 34.3303C17.4605 33.9703 17.4705 33.6003 17.4705 33.2403C17.4705 32.6603 17.7305 32.3604 18.3105 32.3504C18.3805 32.3504 18.4405 32.3504 18.5105 32.3504C19.4705 32.3504 20.4405 32.3904 21.4005 32.4404C21.8905 32.4604 22.2905 32.7303 22.5105 33.1503C22.7205 33.5503 22.8805 33.9703 23.0005 34.4003C23.1205 34.8803 22.8205 35.2404 22.3005 35.2504C22.0305 35.2504 21.7605 35.2604 21.5005 35.2604C21.1005 35.2604 20.6905 35.2604 20.2905 35.2604C19.8805 35.2604 19.4805 35.2604 19.0705 35.2604L19.0605 35.2504ZM42.0505 32.7604C42.4705 32.7604 42.9005 32.7504 43.3205 32.7504C43.9205 32.7504 44.4005 33.2404 44.3905 33.8204C44.3905 34.0904 44.3605 34.3604 44.3205 34.6204C44.2505 35.1004 43.9305 35.3604 43.4305 35.3904C43.3005 35.3904 43.1605 35.3904 43.0305 35.3904C42.8205 35.3904 42.6005 35.3904 42.3905 35.3904V35.4204C41.9605 35.3904 41.5205 35.3903 41.0905 35.3303C40.7005 35.2703 40.5805 35.0704 40.7005 34.7004C40.8605 34.1804 41.0605 33.6704 41.2505 33.1604C41.3505 32.9004 41.5505 32.7604 41.8405 32.7604C41.9105 32.7604 41.9705 32.7604 42.0405 32.7604H42.0505ZM37.8605 34.7704C37.8605 34.7704 37.7905 34.7704 37.7605 34.7704C35.5605 34.7704 33.3605 34.7504 31.1605 34.7304C29.2805 34.7104 27.4105 34.6904 25.5305 34.6704C24.9805 34.6704 24.8705 34.5904 24.7405 34.0604C24.6905 33.8704 24.6505 33.6804 24.6105 33.4704C24.5705 33.2804 24.7205 33.1004 24.9105 33.1004C29.6705 33.2004 34.4005 33.3003 39.1305 33.4003C39.1505 33.5003 39.1605 33.5404 39.1505 33.5704C39.0205 34.6604 38.9405 34.7704 37.8605 34.7704ZM37.2005 36.6804C37.2005 36.6804 37.1805 36.6804 37.1705 36.6804C33.5205 36.6604 29.8805 36.6603 26.2405 36.6503C25.1605 36.6503 24.8405 36.3603 24.6705 35.2403C29.3705 35.3003 34.0305 35.3704 38.6805 35.4304C38.8505 35.4304 38.9905 35.5704 38.9905 35.7304V36.1204C38.9905 36.2404 38.9105 36.3603 38.7905 36.4003C38.3105 36.5803 37.7705 36.6804 37.2005 36.6804ZM43.2605 36.8204C43.1905 36.8204 43.1105 36.8204 43.0205 36.8204C42.8305 36.8204 42.6405 36.7904 42.4605 36.7804C42.2805 36.7604 42.1505 36.5904 42.1905 36.4204C42.2805 36.0304 42.5105 35.8704 42.9505 35.8704C42.9805 35.8704 43.0105 35.8704 43.0405 35.8704C43.3005 35.8804 43.5605 35.9204 43.8105 35.9604C43.8705 35.9604 43.9205 36.0004 44.0005 36.0304C43.8705 36.7204 43.8005 36.8404 43.2605 36.8404V36.8204ZM19.2005 36.8604C18.6005 36.8604 18.3605 36.5204 18.3505 35.9504C18.7305 35.9204 19.1005 35.8704 19.4605 35.8704C19.5005 35.8704 19.5405 35.8704 19.5705 35.8704C19.9005 35.8804 20.0805 36.0604 20.1405 36.3904C20.1705 36.5504 20.0705 36.7003 19.9205 36.7403C19.6305 36.8203 19.3905 36.8604 19.1905 36.8604H19.2005Z" fill="#006BE8"/>
<path d="M8.70898 9.81042L8.68898 10.3504C8.61898 12.1304 8.53898 13.9704 8.49898 15.7804C8.44898 18.0804 8.41898 20.3804 8.38898 22.6804C8.37898 23.8304 8.35898 24.9704 8.33898 26.1204C8.33898 26.6104 8.31898 27.1004 8.30898 27.5904L2.42898 29.6904C2.41898 27.3704 2.40898 25.0604 2.40898 22.7404C2.40898 22.7304 2.41898 22.7104 2.42898 22.6904C4.48898 18.4504 6.55898 14.2204 8.62898 9.98042L8.70898 9.81042ZM13.299 1.93042C13.299 1.93042 13.269 1.93042 13.249 1.93042C13.219 1.93042 13.199 1.93042 13.169 1.93042C13.099 1.93042 13.029 1.93042 12.959 1.95042C11.249 2.30042 9.92898 3.19042 9.09898 4.72042C8.83898 5.19042 8.62898 5.68042 8.39898 6.16042C5.83898 11.3904 3.27898 16.6304 0.728982 21.8704C0.608982 22.1204 0.518982 22.4005 0.518982 22.6705C0.518982 25.7005 0.538982 28.7304 0.558982 31.7604C0.558982 31.9304 0.618982 32.1004 0.648982 32.2904C0.748982 32.2704 0.798982 32.2604 0.848982 32.2504C3.77898 31.2104 6.69898 30.1604 9.62898 29.1204C10.009 28.9804 10.169 28.7104 10.179 28.3404C10.199 27.6104 10.219 26.8804 10.229 26.1504C10.279 22.7104 10.309 19.2604 10.389 15.8204C10.439 13.5704 10.539 11.3204 10.629 9.07042C10.669 8.12042 10.719 7.17042 11.149 6.30042C11.639 5.32042 12.159 4.35042 12.689 3.39042C12.949 2.91042 13.239 2.45042 13.539 1.95042C13.429 1.94042 13.369 1.93042 13.309 1.93042H13.299Z" fill="#006BE8"/>
<path d="M9.61976 33.6804L9.48976 34.2204L9.10976 35.8504L9.87976 36.1304C9.87976 36.1304 9.87976 36.1604 9.87976 36.1804C9.56976 36.1304 9.25976 36.0704 8.96976 36.0004C8.96976 35.2204 8.96976 34.4404 8.96976 33.6804H9.61976ZM8.07976 31.0104C7.82976 31.0104 7.57976 31.0304 7.32976 31.0404C6.76976 31.0704 6.47976 31.3504 6.45976 31.8904C6.39976 33.6004 6.34976 35.3204 6.31976 37.0304C6.31976 37.2204 6.37976 37.4204 6.45976 37.5904C6.49976 37.6804 6.63976 37.7204 6.81976 37.8404C6.76976 37.3204 6.71976 36.9304 6.68976 36.5404C6.54976 35.1404 6.50976 33.7504 6.79976 32.3604C6.81976 32.2504 6.88976 32.1504 6.93976 32.0504C6.97976 32.0504 7.01976 32.0703 7.05976 32.0803C7.05976 32.2103 7.08976 32.3304 7.08976 32.4504C7.08976 33.9504 7.10976 35.4504 7.07976 36.9404C7.07976 37.3004 7.19976 37.4504 7.53976 37.5504C8.65976 37.8804 9.78976 38.1204 10.9598 38.1204C11.1498 38.1204 11.3398 38.1204 11.5298 38.1004C11.5298 38.1004 11.5298 38.1004 11.5398 38.1004C11.6198 38.1004 11.6998 38.1504 11.7298 38.2304C11.8998 38.7104 12.0698 39.2004 12.2498 39.6704C12.4798 40.2504 12.8998 40.6304 13.5398 40.6804C14.0998 40.7304 14.6698 40.7504 15.2298 40.7504C15.2698 40.7504 15.3198 40.7504 15.3598 40.7504C16.1198 40.7504 16.5998 40.3103 16.6998 39.5803C16.7198 39.4603 16.6198 39.3604 16.4998 39.3604H14.2198C13.8898 36.9304 14.0198 34.4904 13.4698 32.1304C13.4098 31.8804 13.1898 31.7403 12.9698 31.7403C12.8198 31.7403 12.6598 31.8104 12.5598 31.9504C11.9598 32.7504 11.6098 33.6704 11.4998 34.7004C11.4398 34.6804 11.3798 34.6604 11.3198 34.6404C11.5198 33.7904 11.7198 32.9404 11.9398 32.0304C11.9698 31.9104 11.8798 31.7904 11.7498 31.7904H7.79976V31.7104C8.33976 31.6604 8.88976 31.6104 9.42976 31.5604C9.42976 31.4904 9.44976 31.4204 9.45976 31.3604C9.17976 31.2504 8.89976 31.0704 8.60976 31.0404C8.43976 31.0204 8.26976 31.0104 8.08976 31.0104H8.07976ZM12.5198 38.1704C12.4598 38.1704 12.3098 38.0404 12.2498 37.9404C11.7698 37.1804 11.7298 36.3404 11.7698 35.4804C11.7898 35.0804 11.8698 34.6804 11.9898 34.3004C12.0798 34.0304 12.2798 33.8004 12.4298 33.5504C13.0998 33.9004 13.0998 34.4904 13.1998 35.0104C13.3798 35.9804 13.2698 36.9404 12.8498 37.8504C12.7898 37.9804 12.6598 38.1004 12.5298 38.1604C12.5298 38.1604 12.5298 38.1604 12.5198 38.1604V38.1704Z" fill="#006BE8"/>
<path d="M5.96992 31.7104C4.90992 31.8504 3.89992 31.9804 2.89992 32.1204C2.60992 32.1604 2.47992 32.3903 2.47992 32.6503C2.47992 33.7203 2.47992 34.7904 2.47992 35.8604C2.47992 36.1604 2.66992 36.3804 2.94992 36.3904C3.05992 36.3904 3.16992 36.3904 3.26992 36.3904C3.73992 36.3904 4.20992 36.3504 4.67992 36.3404C4.69992 35.4304 4.80992 35.2304 5.47992 35.2304C5.54992 35.2304 5.61992 35.2304 5.69992 35.2304C5.78992 34.0904 5.87992 32.9404 5.97992 31.7004L5.96992 31.7104Z" fill="#006BE8"/>
<path d="M19.5515 24.7505C18.6215 25.3505 17.7115 25.9405 16.8015 26.5405C16.7415 26.5805 16.6715 26.6405 16.6715 26.6905C16.6315 27.0805 16.6115 27.4705 16.5815 27.8705H21.0215C20.5215 26.8205 20.0415 25.8005 19.5515 24.7505Z" fill="#006BE8"/>
<path d="M1.7708 32.4904C1.5708 32.4904 1.5208 32.6704 1.5108 32.8604C1.4808 33.7704 1.4608 34.6704 1.4708 35.5804C1.4708 35.8304 1.6208 35.9304 1.8308 35.9304C1.8808 35.9304 1.9408 35.9304 1.9908 35.9104V32.5504C1.9008 32.5104 1.8308 32.5004 1.7708 32.5004V32.4904Z" fill="#006BE8"/>
</svg>
