<svg width="48" height="41" viewBox="0 0 48 41" fill="none" xmlns="http://www.w3.org/2000/svg">
<path d="M22.2321 1.89672C23.5921 1.89672 24.6921 1.90672 25.6921 1.93672C27.9921 2.00672 30.0821 2.15672 32.0921 2.41672C33.9221 2.64672 35.7921 2.97672 37.5921 3.28672C38.2821 3.40672 38.9621 3.52672 39.6421 3.64672C39.6921 3.64672 39.7121 3.66672 39.7121 3.66672C39.7121 3.66672 39.7321 3.68672 39.7521 3.71672C39.8521 3.84672 39.9321 3.98672 40.0121 4.12672C39.8021 4.11672 39.5921 4.09672 39.3921 4.08672C39.0321 4.06672 38.6721 4.03672 38.3021 4.01672C36.2621 3.86672 34.2121 3.71672 32.1721 3.55672C31.0921 3.47672 30.0021 3.38672 28.9221 3.29672C27.6421 3.19672 26.3521 3.09672 25.0721 2.99672C24.2421 2.93672 23.4121 2.86672 22.5821 2.80672C21.2321 2.70672 19.8821 2.60672 18.5321 2.49672C18.4121 2.49672 18.3021 2.48672 18.1821 2.48672C16.7921 2.48672 15.6321 3.18672 15.0121 4.26672L14.9121 4.31672C15.0121 4.18672 15.1121 4.04672 15.2221 3.91672C15.6421 3.40672 16.1721 2.92672 16.7321 2.41672C16.9121 2.24672 17.0921 2.08672 17.2721 1.91672H17.9921C18.7021 1.91672 19.4021 1.91672 20.1121 1.91672C20.8121 1.91672 21.5121 1.91672 22.2121 1.91672M15.7121 17.1468C16.2321 17.5668 16.9121 17.8168 17.6921 17.8568C18.0621 17.8768 18.3621 17.8968 18.6921 17.9268C19.1121 17.9568 19.5721 17.9968 20.2221 18.0268L39.5121 19.1368L41.9221 19.2768C41.9221 19.6468 41.9221 20.0168 41.9221 20.3868C41.8721 20.3868 41.8221 20.3868 41.7721 20.3868C40.7521 20.3568 39.7321 20.3268 38.7221 20.2868H38.6721C34.8521 20.1668 31.0321 20.0468 27.2021 19.9168C25.2921 19.8568 23.3821 19.7968 21.4821 19.7168C21.4321 19.7168 21.3821 19.7168 21.3321 19.7168C20.3221 19.7168 19.5021 20.1968 19.0621 21.0068C18.5821 21.3468 18.1021 21.6868 17.6221 22.0268C16.8321 22.5868 16.0421 23.1468 15.2421 23.7068C14.9021 23.9568 14.6921 24.2368 14.5721 24.3968L14.5521 24.4268C13.9321 24.6568 13.3021 24.8768 12.6721 25.1068V24.7168C12.7121 23.1668 12.7521 21.5568 12.8221 19.9968C12.8521 19.3968 12.8821 18.7868 12.9121 18.1868C13.2421 18.1868 13.5721 18.1268 13.9021 18.0068C14.1221 17.9368 14.3221 17.8468 14.5121 17.7568L15.0121 18.3768L15.6721 17.1568L15.7221 17.1268M22.2321 0.0167236C20.8221 0.0167236 19.4121 0.0267237 18.0021 0.0267237C17.7421 0.0267237 17.4821 0.0267237 17.2221 0.0267237C17.2221 0.0267237 17.2221 0.0267237 17.2121 0.0267237C16.7921 0.0267237 16.4221 0.126724 16.1321 0.406722C15.3421 1.15672 14.4821 1.86672 13.7921 2.69672C12.5521 4.17672 11.7821 5.86672 11.6721 7.80672C11.5921 9.32672 11.4521 10.8368 11.3621 12.3568C11.2121 14.8668 11.0621 17.3868 10.9421 19.8968C10.8621 21.6268 10.8321 23.3468 10.7921 25.0768C10.7721 25.9468 10.7921 26.8268 10.7921 27.7068C10.7921 27.7068 10.8721 27.7168 10.9021 27.7168C10.9121 27.7168 10.9221 27.7168 10.9321 27.7168C12.4821 27.1668 14.0321 26.6168 15.5821 26.0468C15.7321 25.9868 15.8421 25.8068 15.9621 25.6768C16.0921 25.5268 16.1921 25.3368 16.3521 25.2268C17.6921 24.2668 19.0521 23.3168 20.4021 22.3568C20.5021 22.2868 20.6221 22.1768 20.6521 22.0668C20.7521 21.6968 20.9921 21.5868 21.3321 21.5868C21.3521 21.5868 21.3821 21.5868 21.4121 21.5868C23.3221 21.6568 25.2421 21.7268 27.1521 21.7868C30.9921 21.9068 34.8321 22.0268 38.6721 22.1568C39.6921 22.1868 40.7121 22.2268 41.7321 22.2568C42.0221 22.2568 42.2421 22.3468 42.2721 22.6768C42.3021 23.0268 42.1621 23.1668 41.7521 23.1668C41.7321 23.1668 41.7121 23.1668 41.6821 23.1668C40.3021 23.1168 38.9221 23.0668 37.5421 23.0268C34.8921 22.9368 32.2521 22.8568 29.6021 22.7668C26.7821 22.6668 23.9621 22.5668 21.1421 22.4768C21.1321 22.4768 21.1221 22.4768 21.1121 22.4768C20.3221 22.4768 19.7121 23.3468 20.0421 24.0568C20.7521 25.6068 21.4921 27.1468 22.2221 28.6867C22.3521 28.9667 22.5721 29.1168 22.8921 29.1268C25.7421 29.1968 28.5821 29.2768 31.4321 29.3568C32.2921 29.3868 33.1421 29.4568 34.0021 29.4868C35.9021 29.5568 37.8021 29.6167 39.7021 29.6867C39.7321 29.6867 39.7621 29.6867 39.7821 29.6867C40.1821 29.6867 40.3821 29.5568 40.5821 29.1668C41.2321 27.8268 41.8921 26.4968 42.5321 25.1568C42.7921 24.6168 43.0521 24.0868 43.8221 24.0568C43.8221 22.2768 43.8221 20.5368 43.8221 18.7968C43.8221 18.5968 43.9421 18.3968 44.0121 18.2068C44.0721 18.2068 44.1321 18.2068 44.1821 18.2068C44.2421 18.3668 44.3421 18.5268 44.3421 18.6868C44.3621 20.5268 44.3721 22.3668 44.3821 24.1968C44.3821 24.3868 44.3421 24.4768 44.1321 24.5168C43.6521 24.5968 43.2621 24.8468 43.0421 25.2768C42.7621 25.8268 42.5221 26.3968 42.2421 26.9868H43.1421C43.6421 26.9868 43.9721 26.7568 44.1321 26.2868C44.4621 26.2468 44.8021 26.2068 45.1521 26.1768C45.1621 26.0968 45.1721 26.0468 45.1721 26.0068C45.1721 24.7168 45.1721 23.4268 45.1721 22.1368C45.1721 22.0468 45.1321 21.9168 45.0921 21.8468C44.8321 21.3968 44.7221 20.9168 44.7021 20.4068C44.6521 18.9668 44.7621 17.5668 45.3121 16.2168C45.4821 15.7868 45.7521 15.4468 46.2621 15.3868C46.8121 15.3368 47.1521 14.9668 47.1921 14.5268C47.2821 13.6068 47.2921 12.6668 47.3121 11.6968C47.3121 11.4368 47.1121 11.2268 46.8421 11.2268C46.8121 11.2268 46.7821 11.2268 46.7521 11.2268C46.6721 11.2268 46.5821 11.2268 46.5021 11.2268C46.4521 11.2268 46.4021 11.2268 46.3621 11.2268C45.7821 11.2268 45.5921 11.0268 45.5921 10.3968C45.5921 9.55677 45.1521 8.98672 44.4021 8.71672C43.9621 8.55672 43.7921 8.33672 43.7921 7.91672C43.7921 7.89672 43.7921 7.88672 43.7921 7.86672C43.6021 7.38672 43.5321 6.80672 43.2021 6.44672C42.7321 5.92672 42.3821 5.38672 42.2221 4.72672C42.0421 3.95672 41.7421 3.25672 41.2721 2.60672C40.9321 2.14672 40.5021 1.89672 39.9621 1.79672C37.4221 1.36672 34.8821 0.876722 32.3221 0.556722C30.1421 0.286724 27.9421 0.136724 25.7421 0.0667236C24.5721 0.0367236 23.4021 0.0267237 22.2321 0.0267237V0.0167236ZM44.4621 17.5268C36.4121 17.0668 28.3821 16.5968 20.3421 16.1368C19.1721 16.0768 18.6621 16.0068 17.8021 15.9668C16.9721 15.9268 16.5021 15.4668 16.4621 14.6368C16.4121 13.6168 16.4021 12.5968 16.4021 11.5768C16.4021 9.74677 16.4121 7.92672 16.4321 6.09672C16.4321 5.05672 17.1821 4.36672 18.2021 4.36672C18.2621 4.36672 18.3321 4.36672 18.3921 4.36672C20.5721 4.54672 22.7521 4.69672 24.9321 4.86672C27.3021 5.04672 29.6621 5.24672 32.0321 5.42672C34.0821 5.58672 36.1221 5.73672 38.1721 5.88672C39.2421 5.96672 40.3021 6.02672 41.3721 6.11672C42.4621 6.21672 42.9421 6.73672 43.1121 7.94672C43.4821 10.4768 43.8521 12.9968 44.2221 15.5268C44.3121 16.1768 44.3821 16.8268 44.4621 17.5268ZM12.8821 16.3068C12.3321 16.3068 11.9321 15.8868 11.9221 15.2268C11.9121 14.2268 11.9521 13.2368 11.9821 12.2368C12.0021 11.4668 12.0421 10.7068 12.0621 9.93677C12.0821 9.51677 12.2621 9.17672 12.5521 8.86672C13.1221 8.25672 13.6721 7.63672 14.2321 7.02672C14.3721 6.87672 14.4921 6.69672 14.6321 6.54672C14.6821 6.48672 14.7821 6.46672 14.8621 6.42672C14.8921 6.51672 14.9821 6.63672 14.9521 6.69672C14.8121 7.03672 14.6621 7.36672 14.4821 7.68672C14.2121 8.17672 13.9521 8.65672 13.9921 9.22672C14.0021 9.37677 14.0421 9.52677 14.0621 9.67677C14.1921 8.96672 14.2421 8.24672 14.9621 7.65672C14.9621 8.23672 14.9621 8.73672 14.9621 9.23672C14.9621 9.82677 14.9321 10.4268 14.9221 11.0168C14.8921 12.2568 14.8721 13.4968 14.8421 14.7368C14.8421 14.8268 14.7521 14.9168 14.7021 15.0168C14.6421 14.9368 14.5521 14.8768 14.5221 14.7868C14.2021 13.8968 14.1621 12.9868 14.2021 12.0568C14.2221 11.5468 14.2021 11.0368 14.1521 10.5268C14.1021 9.98677 13.8521 9.77677 13.3021 9.74677C13.2521 9.74677 13.2021 9.74677 13.1421 9.74677C13.0821 9.74677 13.0221 9.74677 12.9621 9.74677C12.6321 9.75677 12.3721 10.0168 12.3621 10.3468C12.3621 11.2168 12.3421 12.0668 12.3721 12.9068C12.3921 13.4368 12.7821 13.7668 13.3121 13.8668C13.6721 13.9368 13.9421 14.1468 14.1121 14.4668C14.2021 14.6368 14.2821 14.8168 14.3721 14.9868C14.4621 15.1568 14.5621 15.3268 14.6921 15.5468C14.2221 15.7768 13.7721 16.0668 13.2721 16.2368C13.1321 16.2868 12.9921 16.3068 12.8621 16.3068H12.8821ZM45.0921 16.1968C45.0321 16.1268 44.9321 16.0568 44.9221 15.9668C44.7121 14.5768 44.5221 13.1768 44.3121 11.7868C44.2021 11.0068 44.0721 10.2268 43.9721 9.44677C43.9521 9.26672 43.9721 8.96672 44.0821 8.91672C44.1721 8.86672 44.2521 8.84672 44.3421 8.84672C44.5221 8.84672 44.7021 8.94672 44.8321 9.12672C45.3021 9.79677 45.5121 10.5468 45.4721 11.3668C45.4421 11.9168 45.4721 12.4568 45.4721 13.0068H45.4521C45.4521 13.6668 45.4721 14.3268 45.4521 14.9768C45.4421 15.3168 45.3621 15.6468 45.3021 15.9768C45.2821 16.0568 45.1821 16.1168 45.1121 16.1868L45.0921 16.1968ZM40.6221 24.9668C40.6221 24.9668 40.5821 24.9668 40.5621 24.9668C38.6821 24.9068 36.8121 24.8268 34.9321 24.7668C32.8021 24.7068 30.6821 24.6568 28.5521 24.5968C27.0721 24.5468 25.5921 24.4768 24.1221 24.4268C23.5621 24.4068 23.0021 24.3968 22.4421 24.3868C21.9121 24.3668 21.6321 24.0768 21.6221 23.4868C28.2421 23.5568 34.8521 23.9368 41.4721 24.0868C41.3921 24.7268 41.1521 24.9668 40.6121 24.9668H40.6221ZM39.6321 26.9268C39.6321 26.9268 39.5921 26.9268 39.5621 26.9268C38.1221 26.8768 36.6821 26.8268 35.2421 26.7868C33.5421 26.7468 31.8321 26.7268 30.1321 26.6668C27.9221 26.5868 25.7121 26.4568 23.5121 26.3568C22.9721 26.3268 22.7121 26.0868 22.6721 25.5668C23.6321 25.5368 24.5921 25.5268 25.5421 25.5268C30.5221 25.5268 35.5021 25.8668 40.5021 26.0368C40.4221 26.6868 40.1621 26.9268 39.6421 26.9268H39.6321ZM23.7121 27.4367C29.0021 27.6167 34.2621 27.7968 39.5421 27.9768C39.4121 28.6768 39.2021 28.8668 38.6321 28.8668C38.5921 28.8668 38.5521 28.8668 38.5021 28.8668C36.8121 28.7968 35.1221 28.7367 33.4321 28.6867C30.5021 28.5867 27.5721 28.4968 24.6321 28.4068C24.0421 28.3868 23.7421 28.0967 23.7121 27.4367Z" fill="#4D9FFF"/>
<path d="M18.3021 29.3067C18.5321 29.3067 18.7721 29.3067 19.0121 29.3067C19.2921 29.3067 19.5721 29.3067 19.8521 29.3067C19.9021 29.4067 19.9521 29.5167 20.0021 29.6167C19.4521 29.5967 18.8721 29.5867 18.3021 29.5867H18.2621V29.2967H18.3121M42.9121 29.8267C42.9121 29.8867 42.9121 29.9467 42.9121 29.9967C42.8821 29.9967 42.8521 29.9967 42.8221 29.9967C42.8521 29.9367 42.8821 29.8767 42.9121 29.8267ZM23.0221 36.0767C23.0521 36.1267 23.0821 36.1867 23.1121 36.2367C22.8421 36.2367 22.5821 36.2367 22.3121 36.2367C22.5621 36.2167 22.8021 36.1567 23.0221 36.0767ZM40.2621 36.4667C40.3121 36.5767 40.3621 36.6767 40.4321 36.7767C40.1021 37.0567 39.8421 37.4367 39.7221 37.8867C39.7021 37.9567 39.6821 38.0267 39.6621 38.0867C39.6221 38.1767 39.5921 38.2267 39.5721 38.2467C39.5321 38.2467 39.4421 38.2667 39.3021 38.2667C39.1721 38.2667 39.0121 38.2667 38.8421 38.2367C38.7621 38.2367 38.7221 38.2067 38.7221 38.2067C38.7221 38.2067 38.6821 38.1667 38.6521 38.0567C38.5821 37.8667 38.5021 37.6867 38.4021 37.5167C38.6821 37.4567 38.9521 37.3767 39.2221 37.2767C39.6621 37.1167 40.0221 36.8267 40.2721 36.4567M15.7821 26.7267C15.7821 26.7267 15.7221 26.7267 15.6921 26.7367C13.8821 27.2767 12.1221 27.8067 10.3621 28.3267C9.92207 28.4567 9.73212 28.7467 9.67212 29.1367C9.63212 29.4167 9.67212 29.7167 9.67212 30.1067C10.8821 29.9167 12.0321 29.7367 13.1721 29.5567C13.1921 29.5567 13.2021 29.5567 13.2221 29.5567C13.4221 29.5567 13.5721 29.7466 13.5221 29.9366C13.4521 30.1966 13.4721 30.4766 13.5421 30.7566C13.5821 30.9066 13.6121 31.0667 13.6321 31.2267C13.8321 33.0167 14.0421 34.7967 14.2321 36.5867C14.2721 36.9867 14.3021 37.3967 14.3321 37.8067C14.3421 37.9667 14.4821 38.0867 14.6421 38.0867H14.8721C21.8421 38.0867 28.8121 38.1067 35.7821 38.1167C35.9321 38.1167 36.0821 38.1167 36.2321 38.1467C36.5421 38.2067 36.7621 38.3367 36.8821 38.6667C37.1721 39.4867 37.7521 39.9867 38.6521 40.0867C38.8921 40.1167 39.1221 40.1267 39.3221 40.1267C40.3821 40.1267 40.9521 39.7567 41.3721 38.8967C41.4521 38.7267 41.5021 38.5467 41.5621 38.3567C41.6021 38.2267 41.7221 38.1367 41.8621 38.1367H43.6221C43.7721 38.1367 43.9021 38.0267 43.9321 37.8867C43.9521 37.7867 43.9721 37.6867 43.9921 37.5867C44.7521 34.5867 44.9021 31.5367 44.7821 28.4567C44.7621 28.0567 44.6321 27.8867 44.2221 27.8167C43.7221 27.7367 43.2121 27.6667 42.7121 27.6067C42.6221 27.5967 42.5421 27.5867 42.4721 27.5867C42.1021 27.5867 41.8921 27.7367 41.6821 28.1267C41.3821 28.7167 41.0921 29.3067 40.8021 29.8967C40.4721 30.5867 40.4021 30.7067 39.8221 30.7067C39.7221 30.7067 39.6121 30.7067 39.4821 30.7067C37.5321 30.6367 35.5821 30.5566 33.6321 30.5066C30.1121 30.4166 26.5921 30.3467 23.0721 30.2767C22.5921 30.2767 22.2821 30.0967 22.0921 29.6467C21.8321 29.0267 21.5321 28.4267 21.2421 27.8267C21.1121 27.5567 20.9221 27.4167 20.5921 27.4167C20.5921 27.4167 20.5721 27.4167 20.5621 27.4167C20.3321 27.4167 20.1021 27.4167 19.8821 27.4167C19.3621 27.4167 18.8421 27.4167 18.3221 27.4067H16.7021C16.5321 27.4067 16.3921 27.5467 16.3921 27.7067V32.1767C16.3921 32.8467 16.3921 33.5166 16.3921 34.1866C16.3921 34.3666 16.3921 34.4267 16.2921 34.4267C16.2521 34.4267 16.1921 34.4267 16.1021 34.4067V27.0367C16.1021 26.8667 15.9521 26.7367 15.7921 26.7367L15.7821 26.7267ZM18.8521 34.3567C18.6521 34.3567 18.4421 34.3567 18.2421 34.3567C17.5821 34.3567 17.2821 34.0666 17.2621 33.4366C17.2521 33.0766 17.2621 32.7066 17.2621 32.3466C17.2621 31.7666 17.5221 31.4667 18.1021 31.4567C18.1721 31.4567 18.2321 31.4567 18.3021 31.4567C19.2621 31.4567 20.2321 31.4967 21.1921 31.5467C21.6821 31.5667 22.0821 31.8366 22.3021 32.2566C22.5121 32.6566 22.6721 33.0766 22.7921 33.5066C22.9121 33.9866 22.6121 34.3467 22.0921 34.3567C21.8221 34.3567 21.5521 34.3667 21.2921 34.3667C20.8921 34.3667 20.4821 34.3667 20.0821 34.3667C19.6721 34.3667 19.2721 34.3667 18.8621 34.3667L18.8521 34.3567ZM41.8421 31.8667C42.2621 31.8667 42.6921 31.8567 43.1121 31.8567C43.7121 31.8567 44.1921 32.3467 44.1821 32.9267C44.1821 33.1967 44.1521 33.4667 44.1121 33.7267C44.0421 34.2067 43.7221 34.4667 43.2221 34.4967C43.0921 34.4967 42.9521 34.4967 42.8221 34.4967C42.6121 34.4967 42.3921 34.4967 42.1821 34.4967V34.5267C41.7521 34.4967 41.3121 34.4966 40.8821 34.4366C40.4921 34.3766 40.3721 34.1767 40.4921 33.8067C40.6521 33.2867 40.8521 32.7767 41.0421 32.2667C41.1421 32.0067 41.3421 31.8667 41.6321 31.8667C41.7021 31.8667 41.7621 31.8667 41.8321 31.8667H41.8421ZM37.6521 33.8767C37.6521 33.8767 37.5821 33.8767 37.5521 33.8767C35.3521 33.8767 33.1521 33.8567 30.9521 33.8367C29.0721 33.8167 27.2021 33.7967 25.3221 33.7767C24.7721 33.7767 24.6621 33.6967 24.5321 33.1667C24.4821 32.9767 24.4421 32.7867 24.4021 32.5767C24.3621 32.3867 24.5121 32.2067 24.7021 32.2067C29.4621 32.3067 34.1921 32.4066 38.9221 32.5066C38.9421 32.6066 38.9521 32.6467 38.9421 32.6767C38.8121 33.7667 38.7321 33.8767 37.6521 33.8767ZM36.9921 35.7867C36.9921 35.7867 36.9721 35.7867 36.9621 35.7867C33.3121 35.7667 29.6721 35.7666 26.0321 35.7566C24.9521 35.7566 24.6321 35.4666 24.4621 34.3466C29.1621 34.4066 33.8221 34.4767 38.4721 34.5367C38.6421 34.5367 38.7821 34.6767 38.7821 34.8367V35.2267C38.7821 35.3467 38.7021 35.4666 38.5821 35.5066C38.1021 35.6866 37.5621 35.7867 36.9921 35.7867ZM43.0521 35.9267C42.9821 35.9267 42.9021 35.9267 42.8121 35.9267C42.6221 35.9267 42.4321 35.8967 42.2521 35.8867C42.0721 35.8667 41.9421 35.6967 41.9821 35.5267C42.0721 35.1367 42.3021 34.9767 42.7421 34.9767C42.7721 34.9767 42.8021 34.9767 42.8321 34.9767C43.0921 34.9867 43.3521 35.0267 43.6021 35.0667C43.6621 35.0667 43.7121 35.1067 43.7921 35.1367C43.6621 35.8267 43.5921 35.9467 43.0521 35.9467V35.9267ZM18.9921 35.9667C18.3921 35.9667 18.1521 35.6267 18.1421 35.0567C18.5221 35.0267 18.8921 34.9767 19.2521 34.9767C19.2921 34.9767 19.3321 34.9767 19.3621 34.9767C19.6921 34.9867 19.8721 35.1667 19.9321 35.4967C19.9621 35.6567 19.8621 35.8066 19.7121 35.8466C19.4221 35.9266 19.1821 35.9667 18.9821 35.9667H18.9921Z" fill="#4D9FFF"/>
<path d="M8.5006 8.91674L8.4806 9.45669C8.4106 11.2367 8.3306 13.0767 8.2906 14.8867C8.2406 17.1867 8.2106 19.4867 8.1806 21.7867C8.1706 22.9367 8.1506 24.0767 8.1306 25.2267C8.1306 25.7167 8.1106 26.2067 8.1006 26.6967L2.2206 28.7967C2.2106 26.4767 2.2006 24.1667 2.2006 21.8467C2.2006 21.8367 2.2106 21.8167 2.2206 21.7967C4.2806 17.5567 6.3506 13.3267 8.4206 9.08674L8.5006 8.91674ZM13.0906 1.03674C13.0906 1.03674 13.0606 1.03674 13.0406 1.03674C13.0106 1.03674 12.9906 1.03674 12.9606 1.03674C12.8906 1.03674 12.8206 1.03674 12.7506 1.05674C11.0406 1.40674 9.7206 2.29674 8.8906 3.82674C8.6306 4.29674 8.4206 4.78674 8.1906 5.26674C5.6306 10.4967 3.0706 15.7367 0.520597 20.9767C0.400597 21.2267 0.310596 21.5068 0.310596 21.7768C0.310596 24.8068 0.330596 27.8367 0.350596 30.8667C0.350596 31.0367 0.410596 31.2067 0.440596 31.3967C0.540596 31.3767 0.590596 31.3667 0.640596 31.3567C3.5706 30.3167 6.4906 29.2667 9.4206 28.2267C9.8006 28.0867 9.96058 27.8167 9.97058 27.4467C9.99058 26.7167 10.0106 25.9867 10.0206 25.2567C10.0706 21.8167 10.1006 18.3667 10.1806 14.9267C10.2306 12.6767 10.3306 10.4267 10.4206 8.17674C10.4606 7.22674 10.5106 6.27674 10.9406 5.40674C11.4306 4.42674 11.9506 3.45674 12.4806 2.49674C12.7406 2.01674 13.0306 1.55674 13.3306 1.05674C13.2206 1.04674 13.1606 1.03674 13.1006 1.03674H13.0906Z" fill="#4D9FFF"/>
<path d="M9.41138 32.7867L9.28138 33.3267L8.90138 34.9567L9.67138 35.2367C9.67138 35.2367 9.67138 35.2667 9.67138 35.2867C9.36138 35.2367 9.05138 35.1767 8.76138 35.1067C8.76138 34.3267 8.76138 33.5467 8.76138 32.7867H9.41138ZM7.87138 30.1167C7.62138 30.1167 7.37138 30.1367 7.12138 30.1467C6.56138 30.1767 6.27138 30.4567 6.25138 30.9967C6.19138 32.7067 6.14138 34.4267 6.11138 36.1367C6.11138 36.3267 6.17138 36.5267 6.25138 36.6967C6.29138 36.7867 6.43138 36.8267 6.61138 36.9467C6.56138 36.4267 6.51138 36.0367 6.48138 35.6467C6.34138 34.2467 6.30138 32.8567 6.59138 31.4667C6.61138 31.3567 6.68138 31.2567 6.73138 31.1567C6.77138 31.1567 6.81138 31.1766 6.85138 31.1866C6.85138 31.3166 6.88138 31.4367 6.88138 31.5567C6.88138 33.0567 6.90138 34.5567 6.87138 36.0467C6.87138 36.4067 6.99138 36.5567 7.33138 36.6567C8.45138 36.9867 9.58138 37.2267 10.7514 37.2267C10.9414 37.2267 11.1314 37.2267 11.3214 37.2067C11.3214 37.2067 11.3214 37.2067 11.3314 37.2067C11.4114 37.2067 11.4914 37.2567 11.5214 37.3367C11.6914 37.8167 11.8614 38.3067 12.0414 38.7767C12.2714 39.3567 12.6914 39.7367 13.3314 39.7867C13.8914 39.8367 14.4614 39.8567 15.0214 39.8567C15.0614 39.8567 15.1114 39.8567 15.1514 39.8567C15.9114 39.8567 16.3914 39.4166 16.4914 38.6866C16.5114 38.5666 16.4114 38.4667 16.2914 38.4667H14.0114C13.6814 36.0367 13.8114 33.5967 13.2614 31.2367C13.2014 30.9867 12.9814 30.8466 12.7614 30.8466C12.6114 30.8466 12.4514 30.9167 12.3514 31.0567C11.7514 31.8567 11.4014 32.7767 11.2914 33.8067C11.2314 33.7867 11.1714 33.7667 11.1114 33.7467C11.3114 32.8967 11.5114 32.0467 11.7314 31.1367C11.7614 31.0167 11.6714 30.8967 11.5414 30.8967H7.59138V30.8167C8.13138 30.7667 8.68138 30.7167 9.22138 30.6667C9.22138 30.5967 9.24138 30.5267 9.25138 30.4667C8.97138 30.3567 8.69138 30.1767 8.40138 30.1467C8.23138 30.1267 8.06138 30.1167 7.88138 30.1167H7.87138ZM12.3114 37.2767C12.2514 37.2767 12.1014 37.1467 12.0414 37.0467C11.5614 36.2867 11.5214 35.4467 11.5614 34.5867C11.5814 34.1867 11.6614 33.7867 11.7814 33.4067C11.8714 33.1367 12.0714 32.9067 12.2214 32.6567C12.8914 33.0067 12.8914 33.5967 12.9914 34.1167C13.1714 35.0867 13.0614 36.0467 12.6414 36.9567C12.5814 37.0867 12.4514 37.2067 12.3214 37.2667C12.3214 37.2667 12.3214 37.2667 12.3114 37.2667V37.2767Z" fill="#4D9FFF"/>
<path d="M5.76153 30.8168C4.70153 30.9568 3.69153 31.0868 2.69153 31.2268C2.40153 31.2668 2.27153 31.4967 2.27153 31.7567C2.27153 32.8267 2.27153 33.8968 2.27153 34.9668C2.27153 35.2668 2.46153 35.4868 2.74153 35.4968C2.85153 35.4968 2.96153 35.4968 3.06153 35.4968C3.53153 35.4968 4.00153 35.4568 4.47153 35.4468C4.49153 34.5368 4.60153 34.3368 5.27153 34.3368C5.34153 34.3368 5.41153 34.3368 5.49153 34.3368C5.58153 33.1968 5.67153 32.0468 5.77153 30.8068L5.76153 30.8168Z" fill="#4D9FFF"/>
<path d="M19.3431 23.8568C18.4131 24.4568 17.5031 25.0468 16.5931 25.6468C16.5331 25.6868 16.4631 25.7468 16.4631 25.7968C16.4231 26.1868 16.4031 26.5768 16.3731 26.9768H20.8131C20.3131 25.9268 19.8331 24.9068 19.3431 23.8568Z" fill="#4D9FFF"/>
<path d="M1.56242 31.5967C1.36242 31.5967 1.31242 31.7767 1.30242 31.9667C1.27242 32.8767 1.25242 33.7767 1.26242 34.6867C1.26242 34.9367 1.41242 35.0367 1.62242 35.0367C1.67242 35.0367 1.73242 35.0367 1.78242 35.0167V31.6567C1.69242 31.6167 1.62242 31.6067 1.56242 31.6067V31.5967Z" fill="#4D9FFF"/>
</svg>
