<svg width="43" height="20" viewBox="0 0 43 20" fill="none" xmlns="http://www.w3.org/2000/svg">
<path d="M15.5004 0.482743C15.9592 0.108862 16.4932 0.0657479 16.7216 0.0955326C16.7216 0.0955326 16.7514 0.780589 16.7216 0.810375C16.6474 0.884449 15.9472 0.631666 15.7685 1.67413C15.7089 2.47832 15.7685 4.77175 15.7685 4.77175H14.9643C15.004 3.5605 14.6962 1.13804 15.5004 0.482743Z" fill="white"/>
<path d="M6.69523 16.6679C6.69523 17.7536 5.81512 18.6337 4.72945 18.6337C3.64378 18.6337 2.76366 17.7536 2.76366 16.6679C2.76366 15.5823 3.64378 14.7021 4.72945 14.7021C5.81512 14.7021 6.69523 15.5823 6.69523 16.6679Z" stroke="white" stroke-width="1.13182"/>
<path d="M30.4789 16.6679C30.4789 17.7536 29.5988 18.6337 28.5131 18.6337C27.4275 18.6337 26.5474 17.7536 26.5474 16.6679C26.5474 15.5823 27.4275 14.7021 28.5131 14.7021C29.5988 14.7021 30.4789 15.5823 30.4789 16.6679Z" stroke="white" stroke-width="1.13182"/>
<path d="M36.5961 16.6679C36.5961 17.7536 35.716 18.6337 34.6303 18.6337C33.5447 18.6337 32.6645 17.7536 32.6645 16.6679C32.6645 15.5823 33.5447 14.7021 34.6303 14.7021C35.716 14.7021 36.5961 15.5823 36.5961 16.6679Z" stroke="white" stroke-width="1.13182"/>
<path fill-rule="evenodd" clip-rule="evenodd" d="M1.09258 14.0234H0.866722C0.766931 14.0234 0.686035 14.1043 0.686035 14.2041V16.7789C0.686035 16.8786 0.766931 16.9595 0.866722 16.9595H1.62679C1.72959 16.9595 1.81301 16.8751 1.8172 16.7724C1.84505 16.09 2.13252 13.7749 4.75148 13.7749C7.60506 13.7749 7.67123 16.5234 7.66624 16.9137C7.66591 16.9395 7.6867 16.9595 7.71253 16.9595H8.83952C8.86447 16.9595 8.88469 16.9798 8.88469 17.0047V17.208C8.88469 17.3078 8.96559 17.3887 9.06538 17.3887H14.7118C14.8116 17.3887 14.8925 17.3078 14.8925 17.208V16.6208C14.8925 16.5958 14.9127 16.5756 14.9377 16.5756H25.7089C25.7347 16.5756 25.7555 16.5557 25.7554 16.5299C25.7532 16.1661 25.8404 13.7524 28.5344 13.7524C31.2293 13.7524 31.3349 16.1677 31.3356 16.5303C31.3356 16.5559 31.3564 16.5756 31.382 16.5756H31.8733C31.8997 16.5756 31.9208 16.5548 31.9198 16.5284C31.9059 16.1597 31.9178 13.7524 34.5874 13.7524C37.2658 13.7524 37.4627 16.1757 37.4772 16.532C37.4782 16.557 37.4986 16.5756 37.5235 16.5756H38.4044C38.4293 16.5756 38.4495 16.5554 38.4495 16.5304V13.1651C38.4495 13.1402 38.4293 13.1199 38.4044 13.1199H21.4876C21.4626 13.1199 21.4424 13.0997 21.4424 13.0748V5.46335C21.4424 5.43841 21.4222 5.41818 21.3972 5.41818H20.4261C20.4011 5.41818 20.3809 5.39796 20.3809 5.37301V4.74061C20.3809 4.71566 20.3607 4.69543 20.3357 4.69543H10.5622C10.5447 4.69543 10.5287 4.7056 10.5213 4.7215L10.0891 5.64752C10.0752 5.67747 10.097 5.7118 10.1301 5.7118H10.4726C10.5029 5.7118 10.5246 5.74104 10.5158 5.77004L9.66188 8.59469C9.65633 8.61307 9.63977 8.62592 9.62059 8.62675L1.44617 8.97929C1.3495 8.98346 1.27327 9.06304 1.27327 9.1598V13.8427C1.27327 13.9425 1.19237 14.0234 1.09258 14.0234ZM11.5914 5.7795C11.4873 5.7795 11.3967 5.85066 11.372 5.9518L10.7821 8.36848C10.7474 8.51072 10.8551 8.6479 11.0015 8.6479H14.7116C14.8363 8.6479 14.9375 8.54678 14.9375 8.42204V6.00535C14.9375 5.88062 14.8363 5.7795 14.7116 5.7795H11.5914Z" fill="white"/>
<path d="M21.9619 11.7541V0.843629C21.9619 0.37629 22.3408 -0.00256348 22.8081 -0.00256348H42.17V16.5754H39.8152C39.3479 16.5754 38.969 16.1966 38.969 15.7292V12.9165C38.969 12.7419 38.8275 12.6003 38.6528 12.6003H31.8771C31.7025 12.6003 31.5609 12.7419 31.5609 12.9165V13.0972C31.5609 13.2719 31.4193 13.4134 31.2447 13.4134H28.0149C27.8403 13.4134 27.6987 13.2719 27.6987 13.0972V12.9165C27.6987 12.7419 27.5571 12.6003 27.3825 12.6003H22.8081C22.3408 12.6003 21.9619 12.2215 21.9619 11.7541Z" fill="white"/>
</svg>
