<svg width="46" height="22" viewBox="0 0 46 22" fill="none" xmlns="http://www.w3.org/2000/svg">
<path d="M16.0837 1.87878C16.5515 1.49087 17.0959 1.44614 17.3287 1.47704C17.3287 1.47704 17.3591 2.1878 17.3287 2.2187C17.2531 2.29555 16.5392 2.03329 16.3569 3.11485C16.2962 3.9492 16.3569 6.32864 16.3569 6.32864H15.537C15.5775 5.07197 15.2638 2.55865 16.0837 1.87878Z" fill="white"/>
<path d="M7.14467 18.6711C7.14467 19.8329 6.22159 20.7586 5.10266 20.7586C3.98372 20.7586 3.06064 19.8329 3.06064 18.6711C3.06064 17.5093 3.98372 16.5836 5.10266 16.5836C6.22159 16.5836 7.14467 17.5093 7.14467 18.6711Z" stroke="white" stroke-width="1.07832"/>
<path d="M31.3942 18.6711C31.3942 19.8329 30.4711 20.7586 29.3522 20.7586C28.2332 20.7586 27.3102 19.8329 27.3102 18.6711C27.3102 17.5093 28.2332 16.5836 29.3522 16.5836C30.4711 16.5836 31.3942 17.5093 31.3942 18.6711Z" stroke="white" stroke-width="1.07832"/>
<path d="M37.6305 18.6711C37.6305 19.8329 36.7074 20.7586 35.5885 20.7586C34.4696 20.7586 33.5465 19.8329 33.5465 18.6711C33.5465 17.5093 34.4696 16.5836 35.5885 16.5836C36.7074 16.5836 37.6305 17.5093 37.6305 18.6711Z" stroke="white" stroke-width="1.07832"/>
<path d="M1.57918 16.3273H1.97918V15.9273V11.0846L10.1092 10.7278C10.2979 10.7195 10.4607 10.5925 10.5145 10.4114L11.3874 7.4732C11.4533 7.25132 11.3378 7.0287 11.1429 6.94193L11.277 6.64951H20.6602V6.95633C20.6602 7.20102 20.8586 7.39937 21.1033 7.39937H21.7425V14.99V15.39H22.1425H28.2795C28.0104 15.4677 27.7708 15.5745 27.5582 15.7048C27.0925 15.9901 26.7789 16.3743 26.5697 16.7627C26.2895 17.2826 26.1909 17.8201 26.1569 18.1752H15.5076C15.263 18.1752 15.0646 18.3736 15.0646 18.6183V19.0188H9.73936V19.0166C9.73936 18.772 9.54101 18.5736 9.29633 18.5736H8.48459C8.45502 18.1834 8.35999 17.5698 8.06619 16.9757C7.85264 16.5438 7.52929 16.1125 7.04231 15.7903C6.55321 15.4668 5.92348 15.2696 5.12537 15.2696C4.32704 15.2696 3.69632 15.4669 3.20564 15.7901C2.71711 16.1119 2.39122 16.5427 2.17492 16.9743C1.87671 17.5692 1.77773 18.1838 1.7457 18.5736H1.38047V16.3273H1.57918ZM31.1908 15.7046C30.9774 15.5744 30.7372 15.4676 30.4677 15.39H34.4624C34.1967 15.4679 33.9607 15.5751 33.7521 15.7064C33.2954 15.9936 32.9942 16.3801 32.7977 16.77C32.6546 17.0539 32.5653 17.3429 32.5099 17.6047C32.4443 17.3407 32.3428 17.0483 32.186 16.7613C31.974 16.3732 31.6579 15.9896 31.1908 15.7046ZM38.386 16.7555C38.0513 16.178 37.5023 15.6387 36.6366 15.39H39.082V18.1752H38.8592C38.8108 17.8223 38.6898 17.2798 38.386 16.7555Z" stroke="white" stroke-width="0.8"/>
<path d="M12.0886 7.58957L15.296 7.58957L15.296 10.1352H11.478L12.0886 7.58957Z" stroke="white" stroke-width="0.430364"/>
<path d="M45.249 1.37549H22.6729V14.4511H40.0124V18.5753H45.249" stroke="white" stroke-width="0.8"/>
</svg>
