<svg width="505" height="403" viewBox="0 0 505 403" fill="none" xmlns="http://www.w3.org/2000/svg">
<path d="M318.268 261.862V134.004H83.7578V261.862C83.7578 296.345 83.7578 313.587 94.4703 324.299C105.183 335.012 122.424 335.012 156.907 335.012H245.118C279.601 335.012 296.843 335.012 307.555 324.299C318.268 313.587 318.268 296.345 318.268 261.862Z" stroke="#4D9FFF" stroke-opacity="0.3" stroke-width="21.9449"/>
<path d="M167.507 268.012H234.51" stroke="#4D9FFF" stroke-opacity="0.3" stroke-width="21.9449" stroke-linecap="round"/>
<path d="M479.264 250.353L399.134 89.5198C388.992 69.1616 383.92 58.9825 375.771 53.5737C370.401 50.0096 364.185 47.9276 357.752 47.5387C347.989 46.9485 337.81 52.0199 317.452 62.1627C315.416 63.177 314.398 63.6842 313.857 64.4991C313.501 65.036 313.293 65.6577 313.254 66.301C313.195 67.2773 313.702 68.2952 314.716 70.331L326.939 94.8649L431.516 304.766L443.739 329.3C444.753 331.336 445.261 332.354 446.075 332.895C446.612 333.251 447.234 333.459 447.877 333.498C448.854 333.557 449.872 333.05 451.907 332.036C472.266 321.893 482.445 316.822 487.854 308.673C491.418 303.303 493.5 297.087 493.889 290.653C494.479 280.891 489.407 270.712 479.264 250.353Z" stroke="#4D9FFF" stroke-opacity="0.3" stroke-width="21.9449"/>
</svg>
