<svg width="47" height="46" viewBox="0 0 47 46" fill="none" xmlns="http://www.w3.org/2000/svg">
<path fill-rule="evenodd" clip-rule="evenodd" d="M10.587 19.3348C10.063 20.4743 10.063 21.7705 10.063 24.363V32.4596C10.063 36.06 10.063 37.8601 11.1815 38.9786C12.2201 40.0172 13.8464 40.0914 16.9559 40.0967V30.5503C16.9559 28.5575 18.5713 26.9421 20.5641 26.9421H26.2923C28.285 26.9421 29.9004 28.5575 29.9004 30.5503V40.0967C33.0107 40.0914 34.6373 40.0173 35.676 38.9786C36.7945 37.8601 36.7945 36.06 36.7945 32.4596V24.363C36.7945 21.7705 36.7945 20.4743 36.2704 19.3348C35.7464 18.1954 34.7622 17.3518 32.7938 15.6647L30.8844 14.0281C27.3266 10.9785 25.5477 9.45373 23.4287 9.45373C21.3097 9.45373 19.5308 10.9785 15.973 14.0281L14.0636 15.6647C12.0953 17.3518 11.1111 18.1954 10.587 19.3348ZM26.5028 40.0971V30.5503C26.5028 30.434 26.4086 30.3397 26.2923 30.3397H20.5641C20.4478 30.3397 20.3535 30.434 20.3535 30.5503V40.0971H26.5028Z" fill="white"/>
</svg>
